<?xml version="1.0" encoding="UTF-8"?>
<!-- Generator: visioncortex VTracer 0.6.12 -->
<svg version="1.1" xmlns="http://www.w3.org/2000/svg" width="1024" height="1023" viewBox="0 0 1024 1023" role="img" aria-labelledby="title desc">
<title id="title">Wuhan Polytechnic University logo</title>
<desc id="desc">Wuhan Polytechnic University blue circular seal logo.</desc>
<path d="M0 0 C0.348 0 0.348 0 2.112 0 C25.926 0.004 49.407 0.945 73 4.375 C73.662 4.469 74.325 4.564 75.007 4.661 C165.671 17.628 256.668 55.543 326.102 115.875 C328.812 118.213 331.577 120.456 334.375 122.688 C346.467 132.589 357.445 143.725 368.5 154.75 C369.066 155.314 369.633 155.877 370.216 156.458 C376.362 162.582 382.404 168.737 388 175.375 C388.877 176.385 389.754 177.394 390.633 178.402 C411.091 202.291 429.224 228.178 445 255.375 C445.374 256.019 445.748 256.663 446.134 257.326 C483.265 321.671 505.356 393.422 512 467.375 C512.086 468.319 512.172 469.262 512.26 470.235 C512.946 478.339 513.174 486.389 513.203 494.52 C513.207 495.178 513.207 495.178 513.224 498.508 C513.244 502.734 513.249 506.961 513.25 511.188 C513.25 511.907 513.251 512.626 513.251 513.367 C513.258 534.52 513.014 555.393 510 576.375 C509.828 577.649 509.657 578.922 509.48 580.234 C498.598 660.762 469.082 736.511 397.5 837.477 C395.162 840.187 392.919 842.952 390.688 845.75 C380.786 857.842 369.65 868.82 358.625 879.875 C358.061 880.441 357.498 881.008 356.917 881.591 C350.793 887.737 344.638 893.779 338 899.375 C336.99 900.252 335.981 901.129 334.973 902.008 C315.53 918.658 294.71 933.822 273 947.375 C272.392 947.756 271.783 948.137 271.156 948.529 C259.721 955.641 247.895 962.071 236 968.375 C235.12 968.842 234.239 969.309 233.332 969.79 C170.683 1002.73 96.568 1023.653 25.555 1023.711 C23.647 1023.717 21.739 1023.724 19.831 1023.731 C15.856 1023.743 11.882 1023.747 7.907 1023.746 C3.91 1023.745 -0.085 1023.759 -4.082 1023.787 C-29.022 1023.955 -53.33 1023.199 -78 1019.375 C-78.959 1019.228 -79.918 1019.08 -80.907 1018.929 C-86.029 1018.12 -91.11 1017.174 -96.188 1016.125 C-96.916 1015.978 -97.644 1015.832 -98.395 1015.681 C-145.977 1006.103 -190.648 990.104 -234 968.375 C-234.454 968.149 -234.454 968.149 -236.749 967.004 C-273.753 948.444 -309.086 923.958 -339.41 895.754 C-340.775 894.5 -342.146 893.251 -343.56 892.053 C-350.363 886.275 -356.62 879.941 -362.927 873.634 C-364.924 871.638 -366.93 869.651 -368.936 867.664 C-375.384 861.243 -381.57 854.813 -387.195 847.648 C-388.962 845.423 -390.819 843.333 -392.75 841.25 C-408.287 823.928 -421.698 804.082 -434 784.375 C-434.381 783.767 -434.762 783.158 -435.154 782.531 C-442.266 771.096 -448.696 759.27 -455 747.375 C-455.467 746.495 -455.934 745.614 -456.415 744.707 C-482.469 695.155 -498.796 640.607 -506.812 585.312 C-506.912 584.633 -507.012 583.954 -507.114 583.254 C-510.394 560.542 -511.38 537.9 -511.318 514.97 C-511.312 512.843 -511.31 510.716 -511.307 508.589 C-511.271 488.367 -510.88 468.425 -508 448.375 C-507.828 447.101 -507.657 445.828 -507.48 444.516 C-495.66 357.05 -461.718 274.851 -382.379 171.965 C-381.121 170.596 -379.869 169.22 -378.667 167.802 C-372.98 161.106 -366.738 154.963 -360.521 148.766 C-358.567 146.817 -356.618 144.863 -354.67 142.908 C-348.618 136.853 -342.572 130.872 -336 125.375 C-334.99 124.499 -333.981 123.621 -332.973 122.742 C-313.53 106.092 -292.71 90.928 -271 77.375 C-270.392 76.994 -269.783 76.613 -269.156 76.221 C-257.721 69.109 -245.895 62.679 -234 56.375 C-233.56 56.142 -233.56 56.142 -231.332 54.96 C-181.728 28.879 -127.062 12.466 -71.688 4.5 C-71.016 4.402 -70.344 4.305 -69.651 4.204 C-46.49 0.89 -23.379 -0.033 0 0 Z M-60 19.375 C-60.724 19.472 -61.447 19.569 -62.193 19.669 C-144.064 30.802 -221.997 60.621 -289 109.375 C-289.728 109.904 -290.457 110.432 -291.207 110.977 C-299.392 116.946 -307.294 123.162 -314.965 129.777 C-317.893 132.283 -320.872 134.71 -323.875 137.125 C-327.545 140.11 -330.95 143.19 -334.224 146.6 C-335.965 148.34 -337.768 149.933 -339.641 151.527 C-344.317 155.592 -348.694 159.922 -353.062 164.312 C-353.826 165.072 -354.59 165.832 -355.377 166.615 C-359.578 170.824 -363.613 175.119 -367.492 179.626 C-369.363 181.796 -371.306 183.895 -373.25 186 C-378.281 191.582 -382.874 197.458 -387.464 203.402 C-389.066 205.46 -390.691 207.499 -392.32 209.535 C-407.306 228.357 -419.915 248.598 -432 269.375 C-432.507 270.245 -433.013 271.115 -433.535 272.011 C-475.142 344.03 -495.583 428.955 -495.312 511.812 C-495.311 512.984 -495.309 514.156 -495.307 515.364 C-495.256 534.859 -494.516 554.037 -492 573.375 C-491.915 574.033 -491.83 574.691 -491.743 575.368 C-484.601 630.27 -468.91 685.165 -443.09 734.281 C-441.838 736.687 -440.622 739.11 -439.406 741.535 C-423.231 773.51 -403.035 802.969 -380 830.375 C-379.785 830.633 -379.785 830.633 -378.695 831.938 C-364.333 849.097 -348.994 866.336 -331.863 880.789 C-329.645 882.677 -327.518 884.652 -325.375 886.625 C-319.793 891.656 -313.917 896.249 -307.973 900.839 C-305.915 902.441 -303.876 904.066 -301.84 905.695 C-283.018 920.681 -262.777 933.29 -242 945.375 C-241.565 945.628 -241.565 945.628 -239.364 946.91 C-167.345 988.517 -82.42 1008.958 0.438 1008.688 C1.609 1008.686 2.781 1008.684 3.989 1008.682 C23.484 1008.631 42.662 1007.891 62 1005.375 C62.658 1005.29 63.316 1005.205 63.993 1005.118 C157.832 992.912 246.536 954.282 319 893.375 C319.516 892.944 320.031 892.514 320.562 892.07 C337.722 877.708 354.961 862.369 369.414 845.238 C371.302 843.02 373.277 840.893 375.25 838.75 C380.335 833.114 384.965 827.164 389.606 821.163 C390.939 819.453 392.291 817.759 393.652 816.07 C415.293 789.143 432.999 759.393 448.039 728.341 C449.018 726.339 450.023 724.351 451.031 722.363 C488.603 647.073 501.45 559.934 471.91 353.848 C461.569 323.03 448.109 292.985 431.557 265.008 C430.026 262.419 428.518 259.818 427.012 257.215 C419.97 245.146 412.21 233.677 404 222.375 C403.468 221.642 402.937 220.91 402.389 220.155 C396.423 211.974 390.21 204.077 383.598 196.41 C381.092 193.482 378.665 190.503 376.25 187.5 C373.265 183.83 370.185 180.425 366.775 177.151 C365.035 175.41 363.442 173.607 361.848 171.734 C357.783 167.058 353.453 162.681 349.062 158.312 C348.303 157.549 347.543 156.785 346.76 155.998 C342.551 151.797 338.256 147.762 333.749 143.883 C331.579 142.012 329.48 140.069 327.375 138.125 C321.793 133.094 315.917 128.501 309.973 123.911 C307.915 122.309 305.876 120.684 303.84 119.055 C277.807 98.331 248.98 80.895 219.057 66.377 C216.953 65.352 214.857 64.309 212.762 63.266 C159.557 37.091 100.901 22.562 42 17.375 C41.022 17.281 40.044 17.186 39.037 17.089 C6.447 14.3 -27.571 15.006 -60 19.375 Z " fill="#008CD6" transform="translate(511,-0.375)"/>
<path d="M0 0 C0.801 0.253 1.602 0.507 2.427 0.768 C41.158 13.198 76.712 33.111 108 59 C108.95 59.764 109.9 60.529 110.879 61.316 C119.145 68.089 126.745 75.53 134.312 83.062 C134.568 83.316 134.568 83.316 135.863 84.597 C142.713 91.393 149.01 98.419 155 106 C155.929 107.134 156.86 108.268 157.793 109.398 C212.386 177.261 235.92 265.834 226.875 352.062 C219.236 415.549 193.349 481.393 149.23 528.594 C147.416 530.551 145.677 532.54 143.941 534.566 C139.585 539.559 134.933 544.253 130.25 548.936 C128.761 550.426 127.281 551.925 125.801 553.424 C119.53 559.731 112.997 565.492 106 571 C104.94 571.858 103.88 572.716 102.82 573.574 C73.563 596.514 41.028 613.753 6 626 C5.178 626.289 4.356 626.577 3.51 626.875 C-78.886 655.389 -171.208 646.814 -249.04 609.053 C-272.702 597.295 -296.249 582.312 -315.594 564.23 C-317.551 562.416 -319.54 560.677 -321.566 558.941 C-326.559 554.585 -331.253 549.933 -335.936 545.25 C-337.426 543.761 -338.925 542.281 -340.424 540.801 C-346.731 534.53 -352.492 527.997 -358 521 C-358.858 519.94 -359.716 518.88 -360.574 517.82 C-383.514 488.563 -400.753 456.028 -413 421 C-413.144 420.589 -413.144 420.589 -413.875 418.51 C-423.892 389.563 -430.054 358.048 -430.203 327.375 C-430.21 326.398 -430.217 325.421 -430.225 324.415 C-430.676 243.577 -407.712 159.833 -351.23 99.406 C-349.406 97.438 -347.657 95.438 -345.91 93.402 C-341.695 88.571 -337.21 84.023 -332.677 79.491 C-331.261 78.073 -329.853 76.647 -328.445 75.221 C-322.276 69.038 -315.848 63.415 -309 58 C-307.587 56.851 -306.174 55.701 -304.762 54.551 C-225.669 -8.764 -118.849 -29.529 0 0 Z M-231 21 C-231.785 21.339 -232.569 21.677 -233.378 22.026 C-263.256 35.049 -290.647 53.981 -314.672 75.891 C-316.732 77.757 -318.824 79.571 -320.938 81.375 C-328.908 88.329 -336.112 95.989 -343 104 C-343.274 104.318 -343.274 104.318 -344.659 105.926 C-359.031 122.735 -370.967 140.862 -382 160 C-382.369 160.633 -382.739 161.265 -383.119 161.917 C-402.649 195.619 -413.625 234.643 -419 273 C-419.119 273.808 -419.237 274.616 -419.359 275.448 C-430.9 357.109 -405.386 441.983 -356.337 507.244 C-350.926 514.348 -345.124 521.076 -339.109 527.672 C-337.243 529.732 -335.429 531.824 -333.625 533.938 C-326.671 541.908 -319.011 549.112 -311 556 C-310.364 556.548 -309.729 557.095 -309.074 557.659 C-292.276 572.022 -274.157 584.02 -255 595 C-254.292 595.407 -253.584 595.814 -252.854 596.233 C-218.952 615.503 -180.447 626.612 -142 632 C-141.192 632.119 -140.384 632.237 -139.552 632.359 C-64.581 642.955 17.294 622.451 79 579 C80.125 578.225 81.25 577.45 82.375 576.676 C90.672 570.911 98.393 564.642 106 558 C106.739 557.362 107.477 556.724 108.238 556.066 C110.17 554.39 112.087 552.698 114 551 C114.777 550.316 115.555 549.631 116.355 548.926 C125.147 541.115 133.328 532.908 141 524 C141.274 523.682 141.274 523.682 142.662 522.072 C157.022 505.273 169.02 487.157 180 468 C180.407 467.292 180.814 466.584 181.233 465.854 C200.475 432 211.722 393.423 217 355 C217.119 354.149 217.237 353.298 217.359 352.422 C224.891 295.397 214.869 236.462 192 184 C191.661 183.215 191.323 182.431 190.974 181.622 C183.693 164.918 174.487 148.892 164 134 C163.225 132.875 162.45 131.75 161.676 130.625 C155.911 122.328 149.642 114.607 143 107 C142.362 106.261 141.724 105.523 141.066 104.762 C139.39 102.83 137.698 100.913 136 99 C135.316 98.223 134.631 97.445 133.926 96.645 C126.115 87.853 117.908 79.672 109 72 C108.682 71.726 108.682 71.726 107.072 70.338 C90.273 55.978 72.157 43.98 53 33 C52.292 32.593 51.584 32.186 50.854 31.767 C17 12.525 -21.577 1.278 -60 -4 C-60.851 -4.119 -61.702 -4.237 -62.578 -4.359 C-119.603 -11.891 -178.538 -1.869 -231 21 Z " fill="#008CD6" transform="translate(613,198)"/>
<path d="M0 0 C1.075 1.009 2.149 2.02 3.223 3.031 C5.587 5.246 7.979 7.392 10.438 9.5 C17.236 15.399 23.294 21.908 29.125 28.75 C29.937 29.685 30.749 30.619 31.586 31.582 C44.93 47.026 56.615 63.594 67.25 81 C67.641 81.632 68.032 82.265 68.434 82.916 C71.125 87.395 71.125 87.395 71.125 90.75 C69.189 91.254 67.251 91.753 65.312 92.25 C64.234 92.528 63.155 92.807 62.043 93.094 C59.125 93.75 59.125 93.75 56.125 93.75 C54.647 91.607 53.381 89.52 52.125 87.25 C41.639 69.072 28.857 52.572 15.125 36.75 C14.398 35.91 13.671 35.069 12.922 34.203 C3.152 23.131 -7.241 12.854 -18.875 3.75 C-19.624 3.122 -20.373 2.494 -21.145 1.848 C-56.302 -27.44 -100.704 -44.882 -145.875 -50.25 C-146.575 -50.344 -147.276 -50.439 -147.997 -50.536 C-192.223 -55.875 -238.132 -48.01 -279.66 -32.816 C-281.875 -32.25 -281.875 -32.25 -284.875 -33.25 C-286.777 -35.324 -286.777 -35.324 -288.812 -37.938 C-289.512 -38.836 -290.212 -39.734 -290.934 -40.66 C-293.035 -43.463 -295.005 -46.289 -296.875 -49.25 C-288.743 -52.822 -280.606 -55.765 -272.062 -58.188 C-270.869 -58.527 -269.676 -58.866 -268.446 -59.215 C-249.036 -64.568 -228.952 -68.605 -208.875 -70.25 C-207.622 -70.36 -206.369 -70.469 -205.078 -70.582 C-130.098 -76.228 -55.285 -51.412 0 0 Z " fill="#008CD6" transform="translate(554.875,397.25)"/>
<path d="M0 0 C37.084 -1.542 75.134 6.442 110.223 17.984 C111.093 18.27 111.962 18.556 112.859 18.851 C118.654 20.848 118.654 20.848 119.785 23.109 C119.484 23.477 119.484 23.477 117.957 25.34 C117.158 26.316 116.359 27.291 115.535 28.297 C114.746 29.26 113.957 30.223 113.145 31.215 C111.009 33.834 108.892 36.467 106.785 39.109 C103.329 38.481 100.098 37.613 96.777 36.473 C74.586 29.01 52.069 23.721 28.785 21.109 C27.987 21.015 27.189 20.921 26.367 20.824 C-37.174 14.097 -101.497 31.34 -152.16 70.379 C-154.883 72.581 -157.553 74.835 -160.215 77.109 C-161.324 78.033 -162.433 78.957 -163.543 79.879 C-174.575 89.11 -185.04 99.006 -194.215 110.109 C-194.657 110.638 -195.1 111.167 -195.556 111.711 C-209.649 128.579 -221.893 146.274 -233.215 165.109 C-235.34 164.801 -237.465 164.488 -239.59 164.172 C-240.773 163.998 -241.957 163.824 -243.176 163.645 C-246.215 163.109 -246.215 163.109 -248.215 162.109 C-246.706 156.693 -244.158 152.338 -241.215 147.609 C-240.725 146.817 -240.235 146.024 -239.73 145.208 C-226.366 123.81 -210.334 103.663 -192.215 86.109 C-189.765 83.675 -187.331 81.229 -184.926 78.75 C-179.028 72.714 -172.834 67.335 -166.215 62.109 C-165.12 61.225 -164.027 60.339 -162.934 59.453 C-115.849 21.523 -59.969 2.961 0 0 Z " fill="#008CD6" transform="translate(678.21484375,506.890625)"/>
<path d="M0 0 C-1.529 4.272 -3.715 7.993 -6.125 11.812 C-6.498 12.41 -6.87 13.007 -7.254 13.623 C-8.166 15.084 -9.082 16.542 -10 18 C-10.627 17.824 -11.253 17.648 -11.899 17.467 C-31.276 12.096 -50.99 7.247 -71 5 C-71.385 4.954 -71.385 4.954 -73.334 4.719 C-136.181 -2.023 -200.32 14.501 -250 54 C-250.908 54.715 -251.815 55.431 -252.75 56.168 C-266.875 67.504 -280.526 80.032 -291.801 94.242 C-294.075 97.095 -296.439 99.855 -298.812 102.625 C-305.038 110.056 -310.508 118.02 -316 126 C-317.602 125.693 -319.204 125.383 -320.805 125.07 C-321.697 124.898 -322.588 124.725 -323.507 124.547 C-326.152 123.967 -328.546 123.145 -331 122 C-320.513 103.162 -305.922 86.464 -291 71 C-290.405 70.384 -289.811 69.767 -289.198 69.132 C-282.324 62.045 -275.414 55.194 -267.637 49.086 C-265.854 47.676 -264.107 46.221 -262.395 44.727 C-248.433 32.557 -232.423 22.512 -216 14 C-215.597 13.788 -215.597 13.788 -213.561 12.717 C-190.502 0.713 -165.638 -7.654 -140 -12 C-139.087 -12.161 -138.174 -12.322 -137.233 -12.487 C-91.708 -20.178 -43.576 -14.306 0 0 Z " fill="#008CD6" transform="translate(780,551)"/>
<path d="M0 0 C1.024 0.641 2.047 1.281 3.102 1.941 C12.118 7.762 20.593 14.342 29 21 C29.574 21.453 30.148 21.905 30.74 22.372 C39.481 29.343 47.393 37.189 55.312 45.062 C55.825 45.569 56.337 46.076 56.865 46.599 C63.714 53.393 70.017 60.415 76 68 C76.977 69.204 77.954 70.407 78.934 71.609 C85.462 79.758 91.338 88.23 97 97 C96 99 96 99 93.637 99.887 C92.663 100.151 91.69 100.415 90.688 100.688 C89.722 100.959 88.756 101.231 87.762 101.512 C84.924 102.013 83.659 101.981 81 101 C79.679 99.592 79.679 99.592 78.52 97.789 C78.083 97.127 77.646 96.465 77.196 95.783 C76.739 95.071 76.283 94.359 75.812 93.625 C71.233 86.732 66.376 80.3 61 74 C60.146 72.962 59.293 71.923 58.441 70.883 C46.721 56.717 33.701 43.088 19 32 C17.827 31.077 16.655 30.152 15.484 29.227 C-7.081 11.604 -32.691 -1.49 -60 -10 C-60.735 -10.234 -61.469 -10.468 -62.226 -10.709 C-75.223 -14.801 -88.519 -17.129 -102 -19 C-102.744 -19.106 -103.487 -19.212 -104.254 -19.321 C-141.074 -23.795 -181.084 -19.472 -216.134 -7.767 C-218.977 -7.006 -221.084 -6.601 -224 -7 C-225.486 -8.345 -225.486 -8.345 -226.676 -10.211 C-227.111 -10.879 -227.546 -11.546 -227.994 -12.234 C-228.212 -12.588 -228.212 -12.588 -229.312 -14.375 C-229.767 -15.074 -230.221 -15.772 -230.689 -16.492 C-234 -21.67 -234 -21.67 -234 -24 C-217.838 -29.039 -201.706 -33.214 -185 -36 C-184.02 -36.165 -183.04 -36.33 -182.03 -36.5 C-119.417 -46.541 -53.579 -34.113 0 0 Z " fill="#008CD6" transform="translate(510,394)"/>
<path d="M0 0 C0.337 0.165 0.337 0.165 2.04 0.999 C36.958 18.343 70.57 45.884 94 77 C94.914 78.183 95.829 79.366 96.746 80.547 C99.179 83.687 101.594 86.84 104 90 C102.604 92.792 100.996 93.002 98.125 94.125 C97.241 94.478 96.356 94.831 95.445 95.195 C93 96 93 96 90 96 C88.39 94.161 86.981 92.354 85.562 90.375 C84.659 89.164 83.753 87.956 82.844 86.75 C82.608 86.437 82.608 86.437 81.418 84.855 C68.236 67.606 52.575 51.746 35 39 C33.851 38.145 32.703 37.29 31.555 36.434 C-18.656 -0.622 -81.264 -13.74 -142.618 -4.57 C-154.141 -2.629 -165.77 -0.238 -176.953 3.184 C-179.8 3.946 -182.073 4.177 -185 4 C-186.174 1.733 -187.339 -0.538 -188.5 -2.812 C-188.834 -3.455 -189.168 -4.098 -189.512 -4.76 C-191.002 -7.695 -192 -9.661 -192 -13 C-128.683 -32.682 -59.727 -29.297 0 0 Z " fill="#008CD6" transform="translate(483,407)"/>
<path d="M0 0 C-0.62 4.233 -2.105 7.523 -4.062 11.312 C-4.61 12.381 -5.158 13.45 -5.723 14.551 C-5.933 14.955 -5.933 14.955 -7 17 C-13.901 16.317 -20.458 14.765 -27.188 13.125 C-88.599 -1.44 -153.38 5.485 -207.8 38.562 C-216.667 44.135 -224.962 50.296 -233 57 C-233.565 57.463 -234.13 57.927 -234.712 58.404 C-248.06 69.368 -260.414 81.322 -271 95 C-271.995 96.264 -272.991 97.527 -273.988 98.789 C-276.669 102.185 -279.337 105.59 -282 109 C-285.55 108.401 -288.548 107.448 -291.812 105.938 C-292.603 105.575 -293.393 105.213 -294.207 104.84 C-294.503 104.701 -294.503 104.701 -296 104 C-290.742 95.141 -283.834 87.647 -277 80 C-276.518 79.459 -276.037 78.918 -275.541 78.361 C-265.108 66.681 -254.317 55.699 -242 46 C-240.857 45.058 -239.717 44.114 -238.578 43.168 C-203.899 14.527 -162.282 -3.048 -118 -10 C-117.185 -10.131 -116.369 -10.263 -115.529 -10.398 C-77.775 -16.204 -36.165 -11.581 0 0 Z " fill="#008CD6" transform="translate(765,575)"/>
<path d="M0 0 C8.808 0.994 12.769 4.999 19 11 C34.123 24.076 34.123 24.076 43 25 C45 23 45 23 45.875 19.938 C47 17 47 17 49 16.062 C51 16 51 16 53 17 C54.219 22.037 54.163 26.959 53 32 C65.754 40.287 78.102 44.794 93 47 C92.688 45.062 92.688 45.062 92 43 C91.505 42.835 91.505 42.835 89 42 C87.736 40.541 86.475 39.077 85.273 37.566 C83.649 35.569 81.853 33.784 80 32 C87.157 31.187 92.576 34.106 99 37 C100.155 37.433 101.31 37.866 102.5 38.312 C111.182 42.498 118.295 46.633 122.426 55.605 C123.115 58.48 122.952 60.209 122 63 C117.9 65.733 114.814 65.484 110 65 C106.612 64.232 103.352 63.174 100.062 62.062 C98.39 61.502 96.714 60.952 95.035 60.41 C94.307 60.164 93.579 59.918 92.828 59.664 C88.601 58.671 84.322 58.364 80 58 C80.009 58.723 80.018 59.446 80.027 60.19 C80.108 67.059 80.168 73.927 80.207 80.796 C80.228 84.325 80.256 87.855 80.302 91.385 C80.354 95.458 80.373 99.531 80.391 103.605 C80.411 104.851 80.432 106.096 80.453 107.379 C80.456 117.802 79.017 129.808 71.387 137.66 C69.607 139.129 67.818 140.579 66 142 C65.01 142.784 64.02 143.567 63 144.375 C59.422 146.313 57.01 146.321 53 146 C52 144 52 144 52.637 141.715 C52.983 140.798 53.33 139.882 53.688 138.938 C54.061 137.947 54.435 136.957 54.82 135.938 C55.839 133.401 56.919 130.919 58.062 128.438 C64.603 113.88 66.9 97.33 68.375 81.562 C68.472 80.586 68.569 79.609 68.668 78.603 C69.42 69.502 69.42 69.502 67 66 C64.836 65.074 64.836 65.074 62.375 64.688 C61.558 64.547 60.74 64.406 59.898 64.262 C59.585 64.219 59.585 64.219 58 64 C58.206 68.639 58.376 72.064 61 76 C63.624 79.936 63.794 83.361 64 88 C62.566 88.674 61.127 89.339 59.688 90 C58.887 90.371 58.086 90.743 57.262 91.125 C55 92 55 92 52 92 C51.746 91.385 51.492 90.77 51.23 90.137 C50.886 89.328 50.542 88.52 50.188 87.688 C49.851 86.887 49.515 86.086 49.168 85.262 C47.987 82.975 47.019 81.584 45 80 C41.313 79.312 41.313 79.312 38 79 C36.444 81.834 35.626 84.299 35.105 87.484 C34.954 88.338 34.803 89.191 34.646 90.07 C34.343 91.84 34.049 93.611 33.764 95.383 C32.694 101.297 31.019 106.393 27 111 C26.34 111 25.68 111 25 111 C25 111.66 25 112.32 25 113 C21.04 114.98 17.08 116.96 13 119 C12.505 118.67 12.505 118.67 10 117 C11.412 112.249 13.023 107.778 15.312 103.375 C23.254 87.895 28.452 70.9 33.295 54.238 C33.987 52.04 34.8 49.938 35.688 47.812 C37.157 44.056 37.251 41.009 37 37 C16.209 25.416 16.209 25.416 6.5 22 C1.636 20.133 -1.282 17.427 -4 13 C-5.062 10.375 -5.062 10.375 -5 8 C-3.688 5.375 -3.688 5.375 -2 3 C-1.34 2.01 -0.68 1.02 0 0 Z M48 43 C40.262 59.616 40.262 59.616 41 67 C42 68 42 68 45.062 68.062 C45.547 68.052 45.547 68.052 48 68 C48.33 66.35 48.66 64.7 49 63 C48.34 63 47.68 63 47 63 C46.34 60.36 45.68 57.72 45 55 C51.324 53.93 57.644 52.867 64 52 C64 51.01 64 50.02 64 49 C62.278 47.987 60.547 46.99 58.812 46 C57.85 45.443 56.887 44.886 55.895 44.312 C52.951 42.978 51.181 42.721 48 43 Z " fill="#008CD6" transform="translate(89,270)"/>
<path d="M0 0 C0.763 0.082 1.526 0.165 2.312 0.25 C2.663 1.508 3.014 2.766 3.375 4.062 C5.521 10.542 9.143 17.123 14.031 21.945 C15.312 23.25 15.312 23.25 15.312 25.25 C16.303 25.58 17.293 25.91 18.312 26.25 C19.629 27.844 19.629 27.844 20.875 29.75 C23.111 33.149 23.111 33.149 25.312 34.25 C25.312 34.91 25.312 35.57 25.312 36.25 C25.613 36.376 25.613 36.376 27.133 37.012 C29.609 38.419 30.602 39.719 32.188 42.062 C35.467 46.606 38.599 50.483 44.188 52.062 C44.538 52.093 44.538 52.093 46.312 52.25 C46.062 50.375 46.062 50.375 45.312 48.25 C43.988 47.566 42.654 46.9 41.312 46.25 C39.317 43.257 39.312 42.019 39.312 38.25 C41.851 38.703 43.254 39.204 45.312 40.812 C47.312 42.25 47.312 42.25 51.312 42.25 C52.303 39.61 53.293 36.97 54.312 34.25 C56.938 35.244 58.079 35.749 59.289 38.344 C59.503 39.138 59.717 39.932 59.938 40.75 C61.129 45.066 61.129 45.066 63.312 47.25 C65.296 47.964 67.296 48.636 69.312 49.25 C69.477 50.075 69.477 50.075 70.312 54.25 C68.812 55.812 68.812 55.812 66.312 57.25 C63.538 57.218 61.06 56.754 58.312 56.25 C57.982 58.23 57.653 60.21 57.312 62.25 C62.288 62.968 67.267 63.652 72.25 64.312 C72.592 64.358 72.592 64.358 74.322 64.588 C75.986 64.809 77.649 65.029 79.312 65.25 C79.367 65.599 79.367 65.599 79.645 67.367 C79.803 68.277 79.962 69.187 80.125 70.125 C80.276 71.03 80.427 71.935 80.582 72.867 C81.312 75.25 81.312 75.25 84.312 77.25 C85.632 77.25 86.952 77.25 88.312 77.25 C89.321 74.118 89.268 72.153 88.375 69 C88.024 67.762 87.674 66.525 87.312 65.25 C86.653 65.25 85.993 65.25 85.312 65.25 C83.688 63.25 83.688 63.25 82.312 61.25 C81.075 61.518 79.837 61.786 78.562 62.062 C76.363 62.348 76.363 62.348 74.312 62.25 C71.75 60 71.75 60 70.312 57.25 C70.643 56.26 70.972 55.27 71.312 54.25 C73.375 53.562 73.375 53.562 75.312 53.25 C75.625 50.625 75.625 50.625 75.312 47.25 C74.099 45.749 72.878 44.249 71.559 42.84 C69.5 40.213 69.023 37.477 68.312 34.25 C69.632 34.25 70.952 34.25 72.312 34.25 C72.643 35.24 72.972 36.23 73.312 37.25 C75.188 38.312 75.188 38.312 77.312 39.25 C77.808 39.58 77.808 39.58 80.312 41.25 C82.5 40.875 82.5 40.875 84.312 40.25 C84.643 37.94 84.972 35.63 85.312 33.25 C86.962 32.59 88.612 31.93 90.312 31.25 C91.312 32.25 91.312 32.25 91.334 34.108 C91.287 34.898 91.24 35.689 91.191 36.504 C91.143 37.358 91.095 38.212 91.045 39.092 C90.989 39.99 90.933 40.887 90.875 41.812 C90.823 42.714 90.771 43.616 90.717 44.545 C90.587 46.78 90.452 49.015 90.312 51.25 C91.055 51.539 91.798 51.827 92.562 52.125 C95.312 53.25 95.312 53.25 97.246 54.312 C100.819 55.933 104.677 56.153 108.535 56.688 C111.312 57.25 111.312 57.25 114.312 59.25 C115.677 63.867 115.099 66.836 113.312 71.25 C108.019 70.801 104.794 70.238 100.312 67.25 C98 66.562 98 66.562 96.312 66.25 C96.562 69.614 97.471 70.39 100.062 72.688 C100.597 73.104 101.132 73.52 101.684 73.949 C104.081 75.864 106.176 78.053 108.312 80.25 C108.643 80.58 108.972 80.91 109.312 81.25 C109.432 86.394 109.39 90.856 106.188 95 C102.399 96.647 100.339 96.08 96.312 95.25 C87.74 91.794 80.398 87.145 73.312 81.25 C71.003 79.546 68.661 77.899 66.312 76.25 C65.921 77.116 65.529 77.983 65.125 78.875 C63.079 82.684 61.411 85.222 58.312 88.25 C54.814 89.249 52.381 89.437 48.812 88.812 C46.333 87.263 45.191 85.992 43.375 83.75 C40.046 79.767 36.338 76.698 32.188 73.625 C31.888 73.394 31.888 73.394 30.375 72.225 C28.617 70.961 28.617 70.961 25.312 69.25 C22.383 69.977 22.383 69.977 20.312 71.25 C20.426 73.042 20.554 74.834 20.688 76.625 C20.722 77.124 20.722 77.124 20.898 79.648 C21.312 82.25 21.312 82.25 23.312 84.25 C22.938 86.875 22.938 86.875 22.312 89.25 C20.051 89.617 20.051 89.617 17.312 89.25 C15.293 86.695 15.293 86.695 13.5 83.375 C12.895 82.284 12.291 81.194 11.668 80.07 C10.312 77.25 10.312 77.25 10.312 75.25 C9.754 75.407 9.195 75.563 8.619 75.725 C6.042 76.437 3.459 77.125 0.875 77.812 C-0.003 78.059 -0.882 78.306 -1.787 78.561 C-7.619 80.088 -12.783 80.839 -18.688 79.25 C-21.211 77.762 -21.211 77.762 -23.062 75.938 C-23.689 75.343 -24.315 74.749 -24.961 74.137 C-29.574 69.096 -29.574 69.096 -30.125 65 C-29.661 61.025 -28.608 58.572 -26.66 55.145 C-25.658 53.192 -25.138 51.391 -24.688 49.25 C-22.812 49.562 -22.812 49.562 -20.688 50.25 C-18.678 53.265 -17.961 55.465 -17.062 58.938 C-16.802 59.931 -16.542 60.925 -16.273 61.949 C-16.08 62.708 -15.887 63.468 -15.688 64.25 C-13.938 64.277 -12.188 64.296 -10.438 64.312 C-9.95 64.318 -9.95 64.318 -7.484 64.348 C-5.03 64.262 -3.026 63.957 -0.688 63.25 C-1.511 56.254 -5.834 51.985 -10.688 47.25 C-16.573 41.051 -16.573 41.051 -16.688 36.25 C-16.167 33.518 -15.46 30.93 -14.688 28.25 C-13.367 28.25 -12.048 28.25 -10.688 28.25 C-9.062 30.688 -9.062 30.688 -7.688 33.25 C-7.028 33.58 -6.367 33.91 -5.688 34.25 C-5.461 35.199 -5.234 36.147 -5 37.125 C-2.901 45.079 2.438 52.072 8.637 57.324 C10.312 58.25 10.312 58.25 14.312 58.25 C14.539 57.631 14.766 57.012 15 56.375 C16.692 53.636 18.305 53.2 21.312 52.25 C22.812 53.562 22.812 53.562 24.312 55.25 C24.312 56.24 24.312 57.23 24.312 58.25 C25.055 58.498 25.798 58.745 26.562 59 C29.312 60.25 29.312 60.25 31 62.125 C34.609 65.442 40.31 68.25 45.312 68.25 C45.812 66.062 45.812 66.062 45.312 63.25 C43.474 61.856 41.516 60.805 39.508 59.668 C36.547 57.755 34.654 55.39 32.422 52.691 C25.426 44.594 17.513 37.111 9.312 30.25 C5.14 26.724 1.127 23.171 -2.688 19.25 C-3.221 18.83 -3.755 18.41 -4.305 17.977 C-6.321 15.459 -6.086 13.494 -6.062 10.312 C-6.07 9.272 -6.078 8.232 -6.086 7.16 C-5.511 2.964 -4.417 0.411 0 0 Z " fill="#008CD6" transform="translate(849.6875,296.75)"/>
<path d="M0 0 C0.529 0.427 1.059 0.853 1.604 1.292 C14.445 11.71 28.332 23.533 38 37 C37 40 37 40 35.293 41.203 C34.598 41.549 33.903 41.894 33.188 42.25 C32.5 42.606 31.813 42.962 31.105 43.328 C28.536 44.148 27.52 43.907 25 43 C23.296 41.545 23.296 41.545 21.609 39.684 C20.986 39.006 20.363 38.328 19.722 37.629 C19.071 36.906 18.42 36.183 17.75 35.438 C16.397 33.965 15.042 32.494 13.688 31.023 C13.366 30.672 13.366 30.672 11.738 28.894 C-2.753 13.108 -20.43 0.545 -39 -10 C-39.293 -10.171 -39.293 -10.171 -40.778 -11.034 C-68.416 -27.053 -102.117 -36.138 -134 -37 C-134.73 -37.02 -135.46 -37.041 -136.212 -37.062 C-163.127 -37.71 -189.545 -34.218 -215.457 -26.953 C-219 -26 -219 -26 -221 -26 C-221.837 -28.457 -222.67 -30.916 -223.5 -33.375 C-223.738 -34.074 -223.977 -34.772 -224.223 -35.492 C-226 -40.773 -226 -40.773 -226 -43 C-147.435 -66.933 -63.753 -51.841 0 0 Z " fill="#008CD6" transform="translate(530,467)"/>
<path d="M0 0 C-0.689 3.911 -1.783 7.555 -3.062 11.312 C-3.425 12.381 -3.787 13.45 -4.16 14.551 C-4.437 15.359 -4.714 16.167 -5 17 C-5.995 16.758 -6.99 16.515 -8.016 16.266 C-73.72 0.432 -138.062 2.819 -196.988 38.832 C-202.951 42.555 -208.566 46.528 -214 51 C-214.513 51.42 -215.026 51.839 -215.554 52.271 C-219.426 55.45 -223.229 58.702 -227 62 C-227.505 62.441 -228.011 62.881 -228.531 63.335 C-233.427 67.634 -238.136 71.973 -242.465 76.84 C-243.044 77.488 -243.624 78.137 -244.221 78.805 C-245.346 80.08 -246.456 81.367 -247.549 82.669 C-249.09 84.422 -249.09 84.422 -252 87 C-256.633 87.034 -260.14 84.346 -264 82 C-262.637 78.979 -261.08 76.792 -258.805 74.391 C-258.175 73.722 -257.546 73.054 -256.897 72.365 C-256.23 71.667 -255.563 70.969 -254.875 70.25 C-254.192 69.531 -253.509 68.811 -252.806 68.07 C-250.876 66.042 -248.938 64.02 -247 62 C-246.214 61.171 -245.427 60.342 -244.617 59.488 C-240.329 55.066 -235.696 51.181 -230.887 47.336 C-229.006 45.814 -227.152 44.258 -225.332 42.664 C-172.01 -3.814 -67.529 -33.764 0 0 Z " fill="#008CD6" transform="translate(752,605)"/>
<path d="M0 0 C0.505 0.097 0.505 0.097 3.06 0.586 C20.186 3.971 36.563 9.184 53 15 C51.065 17.395 49.046 19.7 47 22 C46.504 22.628 46.007 23.255 45.496 23.902 C43.725 25.842 42.425 26.965 40 28 C35.493 27.799 31.413 26.464 27.125 25.125 C24.618 24.418 22.109 23.721 19.598 23.031 C18.332 22.681 17.066 22.33 15.762 21.969 C10.079 20.505 4.359 19.515 -1.438 18.625 C-2.411 18.47 -3.385 18.316 -4.388 18.157 C-52.278 10.948 -101.889 19.168 -146.965 35.934 C-150 37 -150 37 -152 37 C-153.508 34.4 -155.006 31.796 -156.5 29.188 C-156.929 28.45 -157.359 27.712 -157.801 26.951 C-158.207 26.239 -158.613 25.527 -159.031 24.793 C-159.22 24.466 -159.22 24.466 -160.174 22.809 C-161 21 -161 21 -161 18 C-111.131 -1.052 -52.978 -10.35 0 0 Z " fill="#008CD6" transform="translate(451,538)"/>
<path d="M0 0 C0.962 -0.007 1.923 -0.014 2.914 -0.021 C42.813 -0.248 42.813 -0.248 61.621 3.203 C62.723 3.396 63.826 3.59 64.961 3.789 C85.817 7.519 108.292 12.223 127.621 21.203 C127.044 25.99 124.98 29.454 122.559 33.516 C122.37 33.838 122.37 33.838 121.416 35.471 C120.491 37.052 119.557 38.628 118.621 40.203 C113.698 38.769 108.801 37.299 103.965 35.59 C73.077 24.691 40.253 18.982 7.496 18.953 C6.803 18.952 6.109 18.952 5.395 18.951 C-17.068 18.985 -41.568 20.66 -62.723 28.801 C-66.341 30.153 -69.458 31.212 -73.379 31.203 C-78.361 28.75 -82.053 24.551 -85.379 20.203 C-85.379 19.543 -85.379 18.883 -85.379 18.203 C-58.265 7.509 -29.287 0.144 0 0 Z " fill="#008CD6" transform="translate(638.37890625,353.796875)"/>
<path d="M0 0 C0.422 0.021 0.422 0.021 2.557 0.125 C50.245 2.641 94.756 18.905 132 49 C132.29 49.233 132.29 49.233 133.76 50.414 C141.667 56.81 148.938 63.683 156 71 C152.89 74.288 149.984 76.837 146 79 C145.334 78.31 144.667 77.621 143.98 76.91 C106.779 38.98 56.203 17.256 3.086 16.58 C-21.818 16.417 -44.834 19.981 -69 26 C-69.417 26.104 -69.417 26.104 -71.528 26.628 C-73.352 27.083 -75.176 27.541 -77 28 C-79.254 22.439 -79.6 16.921 -80 11 C-54.219 3.66 -26.919 -1.381 0 0 Z " fill="#008CD6" transform="translate(394,444)"/>
<path d="M0 0 C0.445 -0.005 0.445 -0.005 2.7 -0.03 C31.841 -0.284 58.168 2.906 86.445 10.238 C85.455 15.848 84.465 21.458 83.445 27.238 C78.521 26.165 73.616 25.044 68.723 23.836 C11.465 9.837 -47.523 13.869 -98.75 44.902 C-110.986 52.484 -122.028 61.318 -132.858 70.763 C-135.743 73.271 -138.65 75.753 -141.555 78.238 C-144.525 75.928 -147.495 73.618 -150.555 71.238 C-118.738 31.241 -63.994 6.735 -14.314 0.698 C-9.54 0.186 -4.8 0.044 0 0 Z " fill="#008CD6" transform="translate(656.5546875,625.76171875)"/>
<path d="M0 0 C0.99 0 1.98 0 3 0 C3.66 6.6 4.32 13.2 5 20 C4.01 19.67 3.02 19.34 2 19 C2 18.34 2 17.68 2 17 C-3.394 19.19 -8.391 21.792 -13.438 24.688 C-14.169 25.103 -14.901 25.519 -15.654 25.947 C-17.438 26.962 -19.219 27.98 -21 29 C-15.077 31.109 -10.252 32.804 -4 31 C1.618 27.983 1.618 27.983 2.875 24.75 C2.916 24.173 2.958 23.595 3 23 C3.99 23.33 4.98 23.66 6 24 C6.337 26.562 6.67 29.125 7 31.688 C7.095 32.409 7.191 33.13 7.289 33.873 C7.767 37.61 8.119 41.223 8 45 C7.34 45 6.68 45 6 45 C5.835 44.34 5.835 44.34 5 41 C4.457 41.271 4.457 41.271 1.711 42.645 C-4.526 45.763 -10.763 48.882 -17 52 C-9.339 54.343 -2.028 56.446 6 57 C6.33 55.68 6.66 54.36 7 53 C7.66 53 8.32 53 9 53 C10.176 56.674 10.074 60.169 10 64 C10.66 64 11.32 64 12 64 C12.868 66.892 13.72 69.788 14.562 72.688 C14.686 73.096 14.686 73.096 15.311 75.162 C17.471 82.676 17.471 82.676 16 87 C14 84 14 84 14 82 C6.508 83.018 -0.73 84.912 -8 86.938 C-8.932 87.19 -9.864 87.443 -10.825 87.704 C-11.708 87.955 -12.59 88.206 -13.5 88.465 C-13.897 88.576 -13.897 88.576 -15.906 89.14 C-18.253 90.104 -19.451 90.998 -21 93 C-21.637 97.297 -21.471 99.285 -19.062 102.938 C-14.355 106.108 -9.63 105.482 -4.239 104.494 C-1.324 103.815 1.554 103.051 4.438 102.25 C5.429 101.997 6.421 101.745 7.443 101.484 C7.916 101.355 7.916 101.355 10.309 100.703 C11.163 100.473 12.016 100.242 12.896 100.005 C15.534 98.745 16.002 97.699 17 95 C17.165 94.505 17.165 94.505 18 92 C18.33 92.165 18.33 92.165 20 93 C20.656 95.23 21.223 97.486 21.75 99.75 C23.348 106.246 25.663 112.009 28.605 118.035 C30.443 121.941 31.742 125.876 33 130 C32.01 130 31.02 130 30 130 C29.34 129.01 28.68 128.02 28 127 C22.399 127.574 18.046 129.63 13 132 C14.65 135.96 16.3 139.92 18 144 C19.939 143.175 21.877 142.35 23.875 141.5 C29.75 139 29.75 139 32 139 C32 136.69 32 134.38 32 132 C32.66 132 33.32 132 34 132 C35.342 135.1 36.672 138.206 38 141.312 C38.382 142.194 38.763 143.075 39.156 143.982 C39.517 144.83 39.878 145.678 40.25 146.551 C40.585 147.331 40.92 148.111 41.266 148.915 C42 151 42 151 42 154 C41.01 153.67 40.02 153.34 39 153 C38.67 152.34 38.34 151.68 38 151 C31.524 151.889 25.697 154.156 19.639 156.5 C17.682 157.252 15.716 157.975 13.748 158.699 C12.502 159.178 11.256 159.658 10.012 160.141 C8.882 160.569 7.752 160.997 6.589 161.438 C4 163 4 163 3.124 165.554 C3.049 167.034 3 168.517 3 170 C0 169 0 169 -1.075 167.051 C-1.394 166.218 -1.714 165.385 -2.043 164.527 C-2.394 163.628 -2.746 162.729 -3.107 161.803 C-3.464 160.857 -3.82 159.912 -4.188 158.938 C-4.556 157.988 -4.924 157.039 -5.303 156.061 C-6.212 153.711 -7.11 151.357 -8 149 C-7.01 148.67 -6.02 148.34 -5 148 C-4.34 148.99 -3.68 149.98 -3 151 C2.76 150.394 7.72 148.243 13 146 C12.711 145.313 12.422 144.626 12.125 143.918 C11.754 143.017 11.382 142.116 11 141.188 C10.814 140.741 10.814 140.741 9.875 138.48 C9 136 9 136 9 133 C3.72 135.31 -1.56 137.62 -7 140 C-7 141.98 -7 143.96 -7 146 C-10 145 -10 145 -10.983 143.282 C-11.261 142.552 -11.538 141.822 -11.824 141.07 C-11.977 140.673 -11.977 140.673 -12.752 138.66 C-13.061 137.824 -13.369 136.987 -13.688 136.125 C-14.008 135.296 -14.328 134.467 -14.658 133.613 C-17 127.432 -17 127.432 -17 124 C-14 125 -14 125 -13 127 C-8.321 126.399 -4.413 125.103 -0.07 123.277 C0.247 123.145 0.247 123.145 1.855 122.475 C3.864 121.635 5.869 120.786 7.875 119.938 C9.245 119.363 10.614 118.79 11.984 118.217 C15.326 116.818 18.664 115.411 22 114 C21.686 110.55 21.296 108.416 19.268 105.567 C17 104 17 104 14.501 104.097 C13.581 104.369 12.66 104.641 11.711 104.922 C10.686 105.205 9.661 105.489 8.605 105.781 C7.539 106.101 6.473 106.421 5.375 106.75 C-12.548 111.979 -12.548 111.979 -20.375 108.5 C-25.483 103.636 -27.735 97.583 -28.25 90.625 C-27.969 86.544 -27.264 84.397 -25 81 C-20.914 77.907 -17.212 76.214 -12.289 74.859 C-11.045 74.511 -9.801 74.163 -8.52 73.805 C-7.221 73.453 -5.923 73.101 -4.625 72.75 C-3.303 72.384 -1.981 72.017 -0.66 71.648 C2.557 70.756 5.777 69.874 9 69 C9.165 68.34 9.165 68.34 10 65 C7.236 63.522 4.635 62.531 1.599 61.763 C0.738 61.543 -0.123 61.323 -1.009 61.096 C-1.929 60.866 -2.849 60.636 -3.797 60.398 C-4.271 60.278 -4.271 60.278 -6.672 59.667 C-9.697 58.899 -12.723 58.137 -15.75 57.375 C-17.803 56.855 -19.857 56.334 -21.91 55.812 C-26.939 54.537 -31.969 53.266 -37 52 C-37 51.01 -37 50.02 -37 49 C-33.379 46.993 -29.752 44.996 -26.125 43 C-25.092 42.428 -24.06 41.855 -22.996 41.266 C-22.01 40.724 -21.024 40.183 -20.008 39.625 C-19.097 39.122 -18.185 38.62 -17.247 38.102 C-15 37 -15 37 -13 37 C-13 36.34 -13 35.68 -13 35 C-13.47 34.949 -13.47 34.949 -15.848 34.691 C-20.861 33.975 -25.612 32.435 -30.438 30.938 C-31.36 30.656 -32.282 30.374 -33.232 30.084 C-35.49 29.394 -37.745 28.699 -40 28 C-40 27.01 -40 26.02 -40 25 C-39.352 24.653 -38.703 24.307 -38.035 23.949 C-16.232 12.273 -16.232 12.273 -7.062 6.875 C-6.449 6.522 -5.836 6.169 -5.205 5.805 C-1.119 3.357 -1.119 3.357 0 0 Z " fill="#008CD6" transform="translate(112,535)"/>
<path d="M0 0 C2.312 0.312 2.312 0.312 5 1 C7.952 1.738 9.638 2.086 12.625 1.375 C13.409 1.251 14.192 1.127 15 1 C16.812 2.438 16.812 2.438 18 4 C16.54 9.31 14.017 13.463 11 18 C11.99 17.67 12.98 17.34 14 17 C14 16.34 14 15.68 14 15 C18.489 12.358 22.054 12.94 27 14 C29.625 15 29.625 15 31 17 C31.751 23.463 29.138 28.045 25.473 33.152 C24 35 24 35 22 37 C23.32 37.99 24.64 38.98 26 40 C25.608 40.846 25.216 41.691 24.812 42.562 C24 46 24 46 24.938 49.75 C27 53 27 53 30.688 54.438 C31.234 54.53 31.234 54.53 34 55 C35.053 57.585 35.124 58.694 34.062 61.312 C31.649 64.457 28.916 66.773 25.84 69.254 C23.217 71.743 22.048 73.652 21.918 77.297 C22.383 81.532 22.958 85.248 24.625 89.188 C26.308 93.18 25.959 95.815 25 100 C22.166 100.81 20.228 101.042 17.312 100.5 C15 99 15 99 13.688 95.562 C13 92 13 92 13 89 C11.289 89.074 11.289 89.074 9 90 C7.31 92.245 5.838 94.427 4.375 96.812 C-9.175 117.849 -9.175 117.849 -17.895 119.809 C-22.118 120.193 -25.562 120.159 -28.938 117.438 C-29.288 116.963 -29.639 116.489 -30 116 C-29.039 112.446 -28.405 111.243 -25.188 109.312 C-23.23 108.507 -21.253 107.745 -19.25 107.062 C-17 106 -17 106 -16.129 104.211 C-14.72 101.451 -12.909 99.717 -10.688 97.562 C-9.886 96.777 -9.084 95.992 -8.258 95.184 C-7.513 94.463 -6.768 93.742 -6 93 C-3.373 90.442 -1.05 88.075 1 85 C-0.98 86.98 -2.96 88.96 -5 91 C-5.495 90.835 -5.495 90.835 -8 90 C-7.72 84.538 -5.411 81.32 -2.277 77.051 C-1 75 -1 75 -1 72 C-1.887 72.248 -2.774 72.495 -3.688 72.75 C-7 73 -7 73 -9.75 71.5 C-14.533 66.185 -14.561 59.57 -14.449 52.676 C-14 50 -14 50 -11.312 47.5 C-10.219 47.005 -9.126 46.51 -8 46 C-6.319 44.685 -4.648 43.357 -3 42 C-2.34 42.66 -1.68 43.32 -1 44 C-1.033 45.972 -1.068 47.943 -1.125 49.914 C-0.938 53.029 0.527 55.29 2 58 C2.688 61.375 2.688 61.375 3 64 C6 57.88 6 57.88 6 54.188 C5 52 5 52 2.438 50.688 C1.633 50.461 0.829 50.234 0 50 C0 48.68 0 47.36 0 46 C1.32 45.34 2.64 44.68 4 44 C3.34 42.68 2.68 41.36 2 40 C1.01 40 0.02 40 -1 40 C-2.357 34.818 -1.423 32.645 1 28 C0.67 26.68 0.34 25.36 0 24 C-3.96 23.01 -7.92 22.02 -12 21 C-13 17 -13 17 -12 15 C-10.511 14.447 -9.009 13.932 -7.5 13.438 C-5.027 12.41 -5.027 12.41 -3 11 C-2.168 8.557 -2.059 6.596 -2.098 4.023 C-2 2 -2 2 0 0 Z M14 35 C13.34 35.66 12.68 36.32 12 37 C12 37.99 12 38.98 12 40 C12.66 40 13.32 40 14 40 C14.33 38.35 14.66 36.7 15 35 C14.67 35 14.34 35 14 35 Z M20 62 C19.67 62.495 19.67 62.495 18 65 C18.99 64.67 19.98 64.34 21 64 C20.67 63.34 20.34 62.68 20 62 Z " fill="#008CD6" transform="translate(414,61)"/>
<path d="M0 0 C0 4.206 -1.787 5.595 -4.5 8.75 C-5.335 9.755 -6.171 10.761 -7.031 11.797 C-10 14 -10 14 -13.547 13.953 C-15.034 13.651 -16.519 13.331 -18 13 C-20.014 12.677 -22.03 12.366 -24.047 12.062 C-27.397 11.533 -30.746 11.001 -34.094 10.461 C-79.323 3.347 -125.965 10.092 -169 25 C-170.153 22.774 -171.298 20.545 -172.438 18.312 C-172.763 17.687 -173.088 17.061 -173.424 16.416 C-175.178 12.963 -176.478 9.848 -177 6 C-156.596 -1.39 -135.472 -6.029 -114 -9 C-113.575 -9.059 -113.575 -9.059 -111.423 -9.359 C-74.657 -14.235 -35.31 -11.492 0 0 Z " fill="#008CD6" transform="translate(480,574)"/>
<path d="M0 0 C1.306 3.921 0.38 5.978 -1.4 9.684 C-1.743 10.366 -2.085 11.047 -2.438 11.75 C-2.776 12.447 -3.114 13.145 -3.463 13.863 C-4.298 15.581 -5.148 17.291 -6 19 C-12.224 18.345 -17.91 16.595 -23.875 14.75 C-66.374 1.992 -112.694 -1.611 -156.252 7.767 C-157.078 7.94 -157.903 8.114 -158.754 8.293 C-159.479 8.453 -160.204 8.613 -160.951 8.778 C-163.288 9.031 -164.797 8.809 -167 8 C-168.879 6.227 -170.559 4.497 -172.25 2.562 C-172.709 2.059 -173.168 1.556 -173.641 1.037 C-177 -2.727 -177 -2.727 -177 -5 C-116.508 -20.975 -59.969 -17.891 0 0 Z " fill="#008CD6" transform="translate(752,398)"/>
<path d="M0 0 C5.341 -0.214 10.064 -0.35 15 2 C18.078 5.202 18.36 7.491 18.293 11.859 C18.283 12.974 18.274 14.089 18.264 15.238 C18.239 16.397 18.213 17.556 18.188 18.75 C18.181 19.337 18.181 19.337 18.146 22.309 C18.111 25.206 18.062 28.103 18 31 C20.371 31.121 20.371 31.121 23 31 C24.374 29.709 25.709 28.374 27 27 C29.477 25.917 30.57 25.889 33.188 26.562 C35 28 35 28 35.75 30.812 C35.966 33.564 36.081 36.243 36 39 C37.32 39.33 38.64 39.66 40 40 C39.959 40.907 39.918 41.815 39.875 42.75 C39.995 45.878 40.391 47.386 42 50 C42.562 49.816 43.124 49.631 43.703 49.441 C46.383 48.926 48.115 49.279 50.75 49.938 C51.549 50.132 52.348 50.327 53.172 50.527 C53.474 50.605 53.474 50.605 55 51 C55.66 50.01 56.32 49.02 57 48 C57.66 48.165 57.66 48.165 61 49 C62.33 52.711 61.687 55.417 60.75 59.188 C60.624 59.721 60.624 59.721 59.984 62.418 C59.822 62.844 59.822 62.844 59 65 C58.505 65.165 58.505 65.165 56 66 C54.087 74.159 52.782 82 52.438 90.375 C51.796 105.572 51.796 105.572 48.68 109.785 C47 111 47 111 44.812 110.688 C44.214 110.461 43.616 110.234 43 110 C43.023 109.336 43.046 108.672 43.07 107.988 C43.088 107.105 43.106 106.222 43.125 105.312 C43.148 104.442 43.171 103.572 43.195 102.676 C42.983 99.765 42.208 97.64 41 95 C40.024 95.373 39.048 95.745 38.043 96.129 C36.758 96.607 35.473 97.085 34.188 97.562 C33.866 97.686 33.866 97.686 32.24 98.311 C27.34 100.113 27.34 100.113 24 99 C24.421 96.265 24.718 94.402 26 92 C27.738 90.926 27.738 90.926 29.812 90.062 C34.113 88.253 35.841 85.952 38.188 82 C39 80 39 80 39 76 C37.68 75.67 36.36 75.34 35 75 C35 75.66 35 76.32 35 77 C32 79 32 79 29.812 78.625 C29.214 78.419 28.616 78.213 28 78 C28.72 73.391 30.313 69.328 32 65 C31.01 65 30.02 65 29 65 C27.011 70.966 27.574 78.013 28.562 84.188 C28.707 85.116 28.851 86.044 29 87 C28.67 87.33 28.34 87.66 28 88 C21.719 87.767 21.719 87.767 19.125 85 C17.866 81.642 17.596 78.683 17.309 75.133 C16.893 72.263 15.581 70.402 14 68 C13.67 66.804 13.34 65.608 13 64.375 C12 61 12 61 10.312 59.375 C9 58 9 58 8.938 55.562 C10.418 51.991 12.717 50.886 16 49 C13.381 47.254 11.962 46.613 9 46 C6.35 49.008 4.235 51.529 2.438 55.125 C0.974 58.052 -0.58 59.83 -3 62 C-4.32 61.34 -5.64 60.68 -7 60 C-4.198 52.571 -1.334 45.208 2 38 C1.386 37.71 0.773 37.42 0.141 37.121 C-2.451 35.764 -4.111 34.227 -6 32 C-6 31.01 -6 30.02 -6 29 C-4.02 28.34 -2.04 27.68 0 27 C0.66 27.66 1.32 28.32 2 29 C3.32 29 4.64 29 6 29 C5.043 25.779 4.406 24.288 1.625 22.312 C0.759 21.879 -0.107 21.446 -1 21 C-1.763 20.608 -2.526 20.216 -3.312 19.812 C-3.869 19.544 -4.426 19.276 -5 19 C-4.67 18.01 -4.34 17.02 -4 16 C4.429 14.714 4.429 14.714 9 16 C6.833 12.008 4.289 9.12 1 6 C0.34 5.34 -0.32 4.68 -1 4 C-0.625 1.875 -0.625 1.875 0 0 Z M32 40 C31.67 41.65 31.34 43.3 31 45 C31.66 44.67 32.32 44.34 33 44 C32.67 42.68 32.34 41.36 32 40 Z M22 56 C21.34 57.32 20.68 58.64 20 60 C21.32 60 22.64 60 24 60 C24 58.68 24 57.36 24 56 C23.34 56 22.68 56 22 56 Z M46 57 C44 60 44 60 44.375 63.188 C44.581 64.116 44.788 65.044 45 66 C45.99 66.33 46.98 66.66 48 67 C49.619 64.428 50.044 63.323 49.625 60.25 C49.419 59.507 49.212 58.765 49 58 C48.01 57.67 47.02 57.34 46 57 Z " fill="#008CD6" transform="translate(247,116)"/>
<path d="M0 0 C1.812 0 1.812 0 4 1 C5.27 2.433 6.535 3.875 7.711 5.387 C9 7 9 7 11.562 9.562 C13.926 11.926 16.03 14.3 18 17 C18 17.66 18 18.32 18 19 C22.971 21.193 27.007 22.326 32.438 21.438 C36.209 19.916 38.425 18.167 41.375 15.453 C43.419 13.625 45.605 12.324 48 11 C48.413 10.732 48.413 10.732 50.5 9.375 C53.186 7.898 54.935 7.149 58 7 C62.746 8.817 66.517 11.347 70 15 C70 17.973 70 17.973 69 21 C66.629 22.758 66.629 22.758 63.562 24.125 C63.022 24.373 63.022 24.373 60.289 25.629 C57.36 26.85 54.415 27.969 51.438 29.062 C48.081 30.339 47.148 30.808 44.875 33.75 C44.586 34.493 44.298 35.235 44 36 C48.482 39.515 52.771 42.647 58 45 C56.25 51.75 56.25 51.75 54 54 C46.803 54.665 41.497 51.367 35.75 47.5 C34.208 46.483 32.661 45.472 31.109 44.469 C30.439 44.02 29.768 43.57 29.077 43.107 C25.943 41.437 23.188 40.775 19.688 41.438 C19.131 41.623 18.574 41.809 18 42 C18.433 43.053 18.866 44.106 19.312 45.191 C24.314 57.92 26.534 69.118 21.062 82.25 C20 84 20 84 17 86 C14.562 85.938 14.562 85.938 12 85 C8 80.784 8 80.784 8 78 C7.196 77.711 6.391 77.423 5.562 77.125 C3 76 3 76 2 74 C2.062 72.701 2.124 71.401 2.188 70.062 C2.292 64.218 0.229 59.323 -2 54 C-0.172 53.379 -0.172 53.379 2 53 C4.75 54.938 4.75 54.938 7 57 C9.279 55.216 9.981 54.063 10.812 51.25 C11.032 47.445 10.111 44.621 9 41 C8.488 40.939 8.488 40.939 5.895 40.633 C4.534 40.464 3.173 40.295 1.812 40.125 C1.139 40.046 0.465 39.968 -0.229 39.887 C-4.118 39.393 -7.43 38.608 -11 37 C-12.052 36.649 -13.104 36.299 -14.188 35.938 C-17 35 -17 35 -19 34 C-19 33.34 -19 32.68 -19 32 C-19.597 31.74 -20.194 31.479 -20.809 31.211 C-24.37 29.243 -26.478 26.128 -29 23 C-29.639 22.299 -30.279 21.597 -30.938 20.875 C-32 19 -32 19 -31.688 16.25 C-31.461 15.507 -31.234 14.765 -31 14 C-26.771 14.384 -24.475 16.1 -21.141 18.594 C-13.756 23.445 -5.777 25.786 3 26 C0.411 17.573 0.411 17.573 -1.75 14.562 C-3.729 10.506 -3.018 6.324 -2 2 C-1.34 1.34 -0.68 0.68 0 0 Z " fill="#008CD6" transform="translate(757,172)"/>
<path d="M0 0 C-1.36 5.921 -4.004 10.416 -9 14 C-14.112 14.617 -18.801 14.063 -23.872 13.307 C-26.906 12.869 -29.943 12.649 -33 12.438 C-34.138 12.358 -35.276 12.278 -36.449 12.195 C-69.101 10.399 -101.337 15.893 -132.53 25.259 C-135.678 26.203 -138.837 27.105 -142 28 C-142.841 25.586 -143.673 23.169 -144.5 20.75 C-144.738 20.068 -144.977 19.386 -145.223 18.684 C-146.394 15.236 -147 12.683 -147 9 C-98.009 -5.537 -50.323 -10.301 0 0 Z " fill="#008CD6" transform="translate(461,596)"/>
<path d="M0 0 C-0.825 2.805 -0.825 2.805 -5 17 C-10.612 18.122 -10.612 18.122 -14.641 16.742 C-15.534 16.449 -16.427 16.155 -17.347 15.852 C-18.305 15.53 -19.263 15.207 -20.25 14.875 C-37.72 9.279 -55.738 5.737 -74 4 C-75.103 3.889 -76.207 3.778 -77.344 3.664 C-92.776 2.33 -108.151 2.662 -123.541 4.288 C-126.026 4.55 -128.511 4.779 -131 5 C-131.738 5.089 -132.476 5.178 -133.236 5.269 C-135.324 5.43 -135.324 5.43 -139 5 C-141.18 2.975 -142.444 1.545 -144 -0.875 C-144.393 -1.431 -144.786 -1.986 -145.191 -2.559 C-148 -6.62 -148 -6.62 -148 -9 C-97.755 -19.583 -48.971 -14.574 0 0 Z " fill="#008CD6" transform="translate(743,424)"/>
<path d="M0 0 C8.559 0.162 14.62 1.708 22 6 C25.105 7.755 27.787 8.414 31.312 8.938 C36.008 9.754 39.853 10.617 44 13 C46.426 16.797 46.473 20.583 46 25 C44.75 27.75 44.75 27.75 42 30 C38.081 31.373 34.057 32.14 30 33 C28.667 33.338 27.337 33.683 26.008 34.035 C18.709 35.967 11.576 37.636 4 38 C4 38.66 4 39.32 4 40 C4.99 40.208 5.98 40.415 7 40.629 C15.247 42.503 21.219 44.425 27 51 C25.627 55.004 24.184 58.151 21 61 C15.764 61.19 11.87 59.596 7.062 57.625 C1.971 55.572 -2.801 54.343 -8.188 53.5 C-35.184 49.189 -35.184 49.189 -43 41 C-43.496 40.481 -43.993 39.961 -44.504 39.426 C-48.796 34.571 -50.294 31.474 -50 25 C-45.939 23.646 -42.909 24.597 -39 26 C-37.481 26.799 -35.981 27.634 -34.5 28.5 C-27.21 32.719 -21.255 33.535 -13 32 C-9.938 31.08 -7.012 29.916 -4.062 28.688 C-3.282 28.373 -2.501 28.058 -1.697 27.734 C-0.158 27.113 1.379 26.487 2.914 25.856 C5.599 24.754 8.3 23.69 11 22.625 C13.05 21.807 15.026 20.987 17 20 C17 19.34 17 18.68 17 18 C16.264 17.986 15.528 17.972 14.77 17.957 C6.727 17.564 6.727 17.564 2.938 14.625 C-0.485 9.988 -1.316 7.801 -1 2 C-0.67 1.34 -0.34 0.68 0 0 Z " fill="#008CD6" transform="translate(626,92)"/>
<path d="M0 0 C4.49 1.497 8.478 3.834 12 7 C12 7.66 12 8.32 12 9 C11.348 8.942 10.695 8.884 10.023 8.824 C1.99 8.41 1.99 8.41 -1.5 11.188 C-3.875 13.859 -4.806 15.71 -6 19 C-4.212 20.172 -2.419 21.338 -0.625 22.5 C0.373 23.15 1.37 23.799 2.398 24.469 C5 26 5 26 7 26 C7.408 22.431 7.196 21.263 5 18.312 C4.67 17.931 4.67 17.931 3 16 C3 15.34 3 14.68 3 14 C7.843 14.959 11.257 17.661 15.25 20.438 C15.995 20.941 16.74 21.444 17.508 21.963 C18.212 22.448 18.915 22.934 19.641 23.434 C19.963 23.656 19.963 23.656 21.595 24.779 C22.058 25.182 22.522 25.585 23 26 C23 26.66 23 27.32 23 28 C22.301 27.916 21.603 27.832 20.883 27.746 C19.973 27.644 19.063 27.542 18.125 27.438 C17.22 27.333 16.315 27.229 15.383 27.121 C13 27 13 27 11 28 C12.195 31.585 13.227 32.142 16.312 34.188 C17.092 34.717 17.872 35.247 18.676 35.793 C21 37 21 37 25 37 C28.573 31.641 29.729 28.454 29 22 C27.438 19.188 27.438 19.188 26 17 C26.165 16.505 26.165 16.505 27 14 C28.273 14.934 29.543 15.873 30.812 16.812 C31.52 17.335 32.228 17.857 32.957 18.395 C34.785 19.831 36.399 21.318 38 23 C36.515 27.168 34.402 30.726 31.973 34.395 C31.583 34.987 31.193 35.579 30.792 36.189 C29.972 37.432 29.149 38.673 28.323 39.913 C27.059 41.817 25.812 43.731 24.564 45.646 C23.764 46.855 22.963 48.063 22.16 49.27 C21.434 50.369 20.709 51.468 19.961 52.601 C19.638 52.997 19.638 52.997 18 55 C17.01 55 16.02 55 15 55 C15.33 53.02 15.66 51.04 16 49 C13.021 46.957 10.042 44.916 7.062 42.875 C6.232 42.305 5.401 41.735 4.545 41.148 C2.868 40 1.188 38.857 -0.496 37.718 C-2.169 36.57 -3.825 35.396 -5.461 34.196 C-5.85 33.918 -5.85 33.918 -7.816 32.508 C-8.503 32.001 -9.189 31.495 -9.897 30.973 C-12.675 29.688 -14.134 30.052 -17 31 C-17.66 31.66 -18.32 32.32 -19 33 C-18.895 40.165 -16.114 45.446 -12.812 51.688 C-11.811 53.635 -10.811 55.583 -9.812 57.531 C-9.329 58.467 -8.846 59.403 -8.348 60.367 C-6.601 63.779 -4.938 67.217 -3.312 70.688 C-2.855 71.661 -2.397 72.634 -1.926 73.637 C-1 76 -1 76 -1 79 C-6.133 78.395 -10.877 77.252 -15.805 75.68 C-17.29 75.222 -18.776 74.765 -20.262 74.309 C-22.57 73.594 -24.876 72.875 -27.179 72.142 C-43.012 67.126 -43.012 67.126 -51 69 C-51.73 71.215 -51.73 71.215 -52 74 C-50.551 76.254 -50.551 76.254 -48.312 78.562 C-47.902 78.991 -47.902 78.991 -45.824 81.16 C-44.884 82.108 -43.942 83.054 -43 84 C-41.944 85.082 -40.888 86.164 -39.832 87.246 C-31.658 95.562 -31.658 95.562 -28 98 C-24.313 97.625 -24.313 97.625 -21 97 C-22.358 100.043 -23.885 102.123 -26.258 104.453 C-26.883 105.072 -27.508 105.691 -28.152 106.328 C-28.803 106.962 -29.454 107.597 -30.125 108.25 C-30.784 108.9 -31.442 109.549 -32.121 110.219 C-33.743 111.817 -35.369 113.411 -37 115 C-37.66 114.34 -38.32 113.68 -39 113 C-38.34 111.35 -37.68 109.7 -37 108 C-41.858 102.332 -46.884 96.877 -52.125 91.562 C-52.815 90.844 -53.504 90.125 -54.215 89.385 C-54.552 89.043 -54.552 89.043 -56.258 87.316 C-56.857 86.702 -57.457 86.088 -58.075 85.455 C-60.425 83.679 -62.07 83.2 -65 83 C-65.495 83.33 -65.495 83.33 -68 85 C-68 82 -68 82 -66.702 80.362 C-66.404 80.071 -66.404 80.071 -64.895 78.602 C-64.24 77.957 -63.586 77.312 -62.912 76.648 C-62.219 75.981 -61.526 75.313 -60.812 74.625 C-60.139 73.965 -59.465 73.305 -58.771 72.625 C-56.852 70.745 -54.926 68.872 -53 67 C-49.272 63.333 -45.706 59.553 -42.188 55.688 C-41.685 55.138 -41.183 54.588 -40.666 54.021 C-39.443 52.682 -38.221 51.341 -37 50 C-36 53 -36 53 -37 56 C-33.584 57.148 -30.167 58.293 -26.75 59.438 C-25.782 59.763 -24.814 60.088 -23.816 60.424 C-22.882 60.736 -21.947 61.049 -20.984 61.371 C-20.126 61.659 -19.267 61.947 -18.382 62.244 C-16.267 62.915 -14.159 63.491 -12 64 C-13.454 60.894 -14.914 57.791 -16.375 54.688 C-16.788 53.806 -17.2 52.925 -17.625 52.018 C-18.025 51.17 -18.424 50.322 -18.836 49.449 C-19.203 48.669 -19.569 47.889 -19.947 47.085 C-21 45 -21 45 -23 42 C-23.598 42.165 -24.196 42.33 -24.812 42.5 C-27 43 -27 43 -30 43 C-28.633 40.084 -27.063 37.571 -25.125 35 C-24.633 34.34 -24.14 33.68 -23.633 33 C-22 31 -22 31 -20.137 29.221 C-17.799 26.791 -16.035 24.279 -14.18 21.465 C-13.48 20.408 -12.78 19.352 -12.059 18.264 C-11.338 17.166 -10.617 16.068 -9.875 14.938 C-9.14 13.825 -8.404 12.712 -7.668 11.6 C-6.321 9.561 -4.975 7.522 -3.632 5.48 C-2.427 3.65 -1.216 1.823 0 0 Z " fill="#008DD6" transform="translate(849,725)"/>
<path d="M0 0 C-1.233 5.901 -3.531 10.883 -8 15 C-12.92 16.289 -17.54 16.266 -22.599 16.085 C-25.85 15.97 -29.097 15.979 -32.349 15.982 C-33.972 15.984 -35.595 15.979 -37.218 15.969 C-59.372 15.872 -81.469 21.406 -102.481 28.032 C-106.645 29.342 -110.656 30.415 -115 31 C-116.316 26.77 -117.296 22.603 -118.07 18.238 C-118.246 17.255 -118.421 16.272 -118.602 15.259 C-118.733 14.514 -118.865 13.768 -119 13 C-82.472 2.161 -38.309 -8.717 0 0 Z " fill="#008CD6" transform="translate(441,623)"/>
<path d="M0 0 C-0.99 5.94 -1.98 11.88 -3 18 C-6.943 17.343 -10.256 16.712 -13.992 15.547 C-37.049 8.504 -59.925 3.695 -84 2.375 C-84.836 2.326 -85.672 2.277 -86.533 2.227 C-90.665 2.021 -94.646 2 -98.766 2.398 C-103.105 2.772 -106.718 2.972 -111 2 C-114.906 -1.89 -117.058 -5.877 -119 -11 C-119 -11.66 -119 -12.32 -119 -13 C-81.253 -21.272 -35.818 -12.393 0 0 Z " fill="#008CD6" transform="translate(734,455)"/>
<path d="M0 0 C0 -0.66 0 -1.32 0 -2 C8.91 -2 17.82 -2 27 -2 C27 -1.34 27 -0.68 27 0 C25.35 0.66 23.7 1.32 22 2 C22 7.28 22 12.56 22 18 C26.62 17.67 31.24 17.34 36 17 C35.928 15.958 35.928 15.958 35.562 10.688 C35.481 9.516 35.4 8.344 35.316 7.137 C35 4 35 4 34 1 C32.35 0.67 30.7 0.34 29 0 C29 -0.66 29 -1.32 29 -2 C34.365 -2.905 39.503 -3.123 44.938 -3.062 C45.717 -3.058 46.496 -3.053 47.299 -3.049 C49.199 -3.037 51.1 -3.019 53 -3 C53 -2.34 53 -1.68 53 -1 C51.35 -0.34 49.7 0.32 48 1 C48.119 5.305 48.243 9.61 48.372 13.915 C48.415 15.378 48.457 16.84 48.497 18.303 C48.556 20.413 48.619 22.523 48.684 24.633 C48.72 25.9 48.757 27.167 48.795 28.473 C48.984 31.72 49.396 34.807 50 38 C51.65 38.33 53.3 38.66 55 39 C55 39.66 55 40.32 55 41 C49.827 42.063 44.876 42.117 39.625 42.062 C39.209 42.06 39.209 42.06 37.105 42.049 C35.07 42.037 33.035 42.019 31 42 C31 41.34 31 40.68 31 40 C32.98 39.67 34.96 39.34 37 39 C37 33.06 37 27.12 37 21 C34.69 21.33 32.38 21.66 30 22 C27.36 22 24.72 22 22 22 C22.33 24.805 22.33 24.805 24 39 C25.65 39.33 27.3 39.66 29 40 C29 40.99 29 41.98 29 43 C21.41 43.33 13.82 43.66 6 44 C6.33 43.01 6.66 42.02 7 41 C7.99 40.67 8.98 40.34 10 40 C10.128 27.292 9.795 14.684 9 2 C6.69 1.67 4.38 1.34 2 1 C2.012 1.603 2.023 2.207 2.035 2.828 C2.044 3.627 2.053 4.427 2.062 5.25 C2.074 6.039 2.086 6.828 2.098 7.641 C2.004 9.907 1.632 11.829 1 14 C0.34 14 -0.32 14 -1 14 C-1.291 13.313 -1.583 12.626 -1.883 11.918 C-5.232 4.555 -5.232 4.555 -8.938 1.875 C-13.761 0.497 -16.538 0.298 -21.125 2.5 C-26.074 6.804 -27.755 10.276 -28.348 16.867 C-28.393 18.286 -28.422 19.705 -28.438 21.125 C-28.443 21.465 -28.443 21.465 -28.468 23.188 C-28.388 27.827 -27.487 31.089 -25 35 C-20.655 37.641 -17.137 38.523 -12.066 37.66 C-8.311 36.46 -5.177 34.29 -2 32 C-1.5 34.188 -1.5 34.188 -2 37 C-5.154 40.636 -8.843 41.839 -13.52 42.488 C-22.553 42.809 -29.75 41.64 -36.648 35.543 C-41.525 30.201 -42.417 24.487 -42.25 17.523 C-41.58 10.756 -38.809 5.809 -34 1 C-23.034 -6.713 -11.855 -4.634 0 0 Z " fill="#008CD6" transform="translate(498,914)"/>
<path d="M0 0 C1.443 4.329 0.148 7.017 -1.414 11.199 C-3.74 15.307 -6.866 17.271 -10.855 19.66 C-13 21 -13 21 -14 23 C-13.113 23.103 -12.226 23.206 -11.312 23.312 C-7.943 24.012 -5.827 25.087 -3 27 C-2.608 26.536 -2.608 26.536 -0.625 24.188 C-0.184 23.665 0.257 23.143 0.711 22.605 C1.892 21.134 2.954 19.57 4 18 C7.722 18.254 9.557 18.604 12.375 21.125 C14.431 24.762 14.686 26.887 14 31 C11.591 33.575 9.688 33.957 6.219 34.172 C3.479 34.186 0.738 34.099 -2 34 C-1.67 37.63 -1.34 41.26 -1 45 C0.382 44.711 1.764 44.422 3.188 44.125 C7.175 43.698 7.67 43.739 11 46.375 C13.647 50.439 14.492 54.184 14 59 C12.726 64.127 10.878 69.069 9 74 C13.875 73.125 13.875 73.125 15 72 C17.339 72.287 19.674 72.619 22 73 C22 73.99 22 74.98 22 76 C22.99 76.33 23.98 76.66 25 77 C23.632 81.477 21.825 83.356 18 86 C10.62 88.648 3.671 89.608 -4 88 C-7.619 85.587 -7.593 84.096 -8.465 80.008 C-9 78 -9 78 -10.562 75.562 C-12.719 71.718 -13.355 68.403 -13 64 C-11.88 60.587 -10.539 57.317 -9.164 54 C-6.517 47.178 -8.41 42.058 -10.734 35.453 C-12.139 32.731 -13.532 31.734 -16 30 C-16.75 27.312 -16.75 27.312 -17 25 C-17.619 25.784 -18.238 26.567 -18.875 27.375 C-21 30 -21 30 -23 32 C-23.99 32 -24.98 32 -26 32 C-26.609 24.452 -25.332 19.279 -21 13 C-19.076 11.002 -17.094 9.263 -14.926 7.535 C-13.195 6.155 -11.703 4.732 -10.188 3.125 C-6.934 -0.036 -4.355 -0.118 0 0 Z M-6 65 C-6 66.65 -6 68.3 -6 70 C-5.67 70 -5.34 70 -5 70 C-5 68.35 -5 66.7 -5 65 C-5.33 65 -5.66 65 -6 65 Z " fill="#008CD6" transform="translate(474,55)"/>
<path d="M0 0 C-0.155 0.485 -0.155 0.485 -0.938 2.938 C-1.261 5.444 -1.181 6.667 0.035 8.906 C1.944 11.346 3.964 13.665 6 16 C7.661 18.023 9.305 20.059 10.949 22.096 C12.63 24.179 14.319 26.254 16.012 28.328 C16.267 28.644 16.267 28.644 17.56 30.244 C18.827 31.789 20.139 33.296 21.457 34.797 C21.966 35.524 22.475 36.251 23 37 C22.67 37.99 22.34 38.98 22 40 C16.519 38.88 11.038 37.759 5.557 36.637 C3.693 36.255 1.829 35.874 -0.036 35.493 C-2.717 34.946 -5.397 34.397 -8.078 33.848 C-8.911 33.678 -9.743 33.508 -10.601 33.333 C-10.991 33.253 -10.991 33.253 -12.966 32.848 C-13.65 32.708 -14.334 32.568 -15.038 32.424 C-17.038 31.992 -19.018 31.507 -21 31 C-17.796 35.111 -14.578 39.209 -11.342 43.294 C-10.25 44.682 -9.177 46.083 -8.109 47.488 C-4.642 51.895 -4.642 51.895 -1.312 52.438 C-0.549 52.293 0.214 52.149 1 52 C1.99 52 2.98 52 4 52 C4 52.66 4 53.32 4 54 C2.031 55.624 0.067 57.136 -2 58.625 C-2.286 58.835 -2.286 58.835 -3.734 59.898 C-5.152 60.938 -6.575 61.97 -8 63 C-8.66 62.34 -9.32 61.68 -10 61 C-9.67 60.67 -9.67 60.67 -8 59 C-8.051 53.177 -10.889 50.24 -14.625 46.188 C-15.723 44.96 -16.82 43.731 -17.914 42.5 C-18.445 41.906 -18.977 41.311 -19.524 40.699 C-22.041 37.801 -24.28 34.702 -26.5 31.574 C-28.308 29.677 -29.405 29.235 -32 29 C-34.75 30.438 -34.75 30.438 -37 32 C-36.596 38.011 -33.808 42.021 -30.625 46.938 C-22.034 60.35 -22.034 60.35 -21.969 65.441 C-23.464 71.413 -25.575 75.552 -30.754 79.254 C-35.201 81.832 -39.325 82.507 -44.41 82.727 C-52.692 80.403 -56.68 72.2 -60.688 65.25 C-61.786 63.354 -62.894 61.463 -64.012 59.578 C-64.491 58.747 -64.97 57.916 -65.464 57.06 C-67.164 54.781 -68.307 53.877 -71 53 C-71.495 53.165 -71.495 53.165 -74 54 C-74 53.01 -74 52.02 -74 51 C-72.487 49.65 -72.487 49.65 -70.387 48.301 C-69.633 47.814 -68.88 47.328 -68.104 46.826 C-67.306 46.327 -66.509 45.827 -65.688 45.312 C-64.902 44.801 -64.116 44.29 -63.307 43.764 C-57.402 40 -57.402 40 -54 40 C-54.309 40.598 -54.619 41.196 -54.938 41.812 C-56 44 -56 44 -57 47 C-55.784 49.496 -55.784 49.496 -53.922 52.438 C-53.255 53.497 -52.589 54.557 -51.902 55.648 C-51.192 56.754 -50.482 57.86 -49.75 59 C-49.055 60.106 -48.36 61.212 -47.645 62.352 C-41.615 71.864 -41.615 71.864 -39 74 C-35.283 74.566 -33.487 74.27 -30.188 72.438 C-27.166 69.071 -26.783 67.549 -27 63 C-28.587 59.073 -30.773 55.593 -33 52 C-33.723 50.728 -34.443 49.455 -35.16 48.18 C-35.917 46.889 -36.676 45.6 -37.438 44.312 C-37.784 43.688 -38.131 43.063 -38.488 42.42 C-39.559 40.676 -39.559 40.676 -42 38 C-45.785 37.605 -45.785 37.605 -49 38 C-49 37.01 -49 36.02 -49 35 C-46.541 33.272 -43.99 31.823 -41.368 30.359 C-37.184 27.937 -34.483 25.334 -31.25 21.688 C-28.236 19.059 -26.231 17.97 -22.195 18.067 C-14.644 19.034 -7.313 20.924 0 23 C0.383 23.107 0.383 23.107 2.322 23.65 C3.884 24.091 5.443 24.544 7 25 C5.286 22.674 3.556 20.366 1.812 18.062 C1.571 17.733 1.571 17.733 0.35 16.064 C-3.327 11.252 -3.327 11.252 -6.676 9.996 C-9 10 -9 10 -12 11 C-12 10.01 -12 9.02 -12 8 C-9.883 5.957 -9.883 5.957 -7.125 3.812 C-6.22 3.097 -5.315 2.382 -4.383 1.645 C-2 0 -2 0 0 0 Z " fill="#008DD6" transform="translate(781,810)"/>
<path d="M0 0 C33.38 -0.823 64.537 4.843 96 16 C96 22.27 96 28.54 96 35 C86.127 31.709 86.127 31.709 82.441 30.387 C62.204 23.275 41.764 18.772 20.434 16.543 C19.516 16.444 18.599 16.344 17.654 16.242 C15.911 16.083 14.164 15.978 12.415 15.932 C10.127 15.833 8.182 15.695 6 15 C3.809 12.129 3.809 12.129 2.438 8.562 C1.962 7.388 1.486 6.214 0.996 5.004 C0 2 0 2 0 0 Z " fill="#008CD6" transform="translate(632,472)"/>
<path d="M0 0 C1.1 0.005 2.199 0.009 3.332 0.014 C6.013 0.025 8.694 0.042 11.375 0.062 C10.342 5.685 9.351 10.758 5.375 15.062 C1.044 16.584 -3.242 16.964 -7.788 17.239 C-10.794 17.424 -13.785 17.72 -16.782 18.011 C-18.288 18.157 -19.795 18.299 -21.302 18.435 C-40.949 20.241 -59.384 26.653 -77.896 33.11 C-79.801 33.775 -81.711 34.424 -83.625 35.062 C-84.465 30.709 -84.733 26.618 -84.688 22.188 C-84.678 21.035 -84.669 19.883 -84.66 18.695 C-84.649 17.826 -84.637 16.958 -84.625 16.062 C-57.086 6.864 -29.202 -0.231 0 0 Z " fill="#008CD6" transform="translate(412.625,652.9375)"/>
<path d="M0 0 C7.444 2.233 14.12 5.403 21 9 C20.34 9.66 19.68 10.32 19 11 C17.68 10.67 16.36 10.34 15 10 C15.66 16.6 16.32 23.2 17 30 C23.047 26.837 27.967 23.605 33 19 C32.505 18.546 32.01 18.092 31.5 17.625 C30 16 30 16 30 14 C34.663 14.598 38.525 15.898 42.848 17.727 C50.911 21.058 59.122 23.753 67.438 26.375 C68.863 26.829 70.288 27.283 71.713 27.738 C75.14 28.831 78.569 29.918 82 31 C81.397 35.567 80.585 39.666 79 44 C78.34 44 77.68 44 77 44 C76.914 43.385 76.827 42.77 76.738 42.137 C75.581 35.479 75.581 35.479 72.5 32.938 C70 32 70 32 68 32 C66.542 36.318 65.1 40.642 63.673 44.97 C63.185 46.441 62.693 47.91 62.197 49.378 C61.483 51.492 60.785 53.611 60.09 55.73 C59.978 56.057 59.978 56.057 59.411 57.707 C58.194 61.476 57.644 64.217 59 68 C59.66 68.33 60.32 68.66 61 69 C61 69.66 61 70.32 61 71 C55.734 70.404 51.056 69.187 46.062 67.438 C45.721 67.321 45.721 67.321 43.99 66.729 C42.325 66.158 40.662 65.58 39 65 C39 64.01 39 63.02 39 62 C39.99 62.165 39.99 62.165 45 63 C45.168 62.43 45.336 61.861 45.509 61.274 C47.638 54.109 49.9 46.99 52.188 39.875 C52.556 38.728 52.924 37.58 53.303 36.398 C54.201 33.599 55.1 30.799 56 28 C55 27 55 27 51.75 26.625 C47.102 27.09 45.999 28.572 43 32 C42.34 32 41.68 32 41 32 C42 24.571 42 24.571 43 21 C36.642 22.356 32.109 25.212 26.875 29 C26.073 29.579 25.272 30.157 24.446 30.754 C17.241 36.178 14.07 41.306 12 50 C12.66 50.454 13.32 50.908 14 51.375 C14.66 51.911 15.32 52.447 16 53 C16 53.66 16 54.32 16 55 C10.831 54.337 6.377 52.081 1.688 49.938 C0.852 49.56 0.016 49.183 -0.846 48.795 C-2.899 47.868 -4.951 46.936 -7 46 C-6.67 45.01 -6.34 44.02 -6 43 C-4.02 43.33 -2.04 43.66 0 44 C7.121 33.103 5.33 20.272 3 8 C2.372 6.318 1.709 4.649 1 3 C0.67 2.01 0.34 1.02 0 0 Z " fill="#008CD6" transform="translate(331,869)"/>
<path d="M0 0 C0.165 0.495 0.165 0.495 1 3 C0.01 3.33 -0.98 3.66 -2 4 C-3.329 7.986 -2.357 9.956 -1.164 13.969 C-0.965 14.645 -0.766 15.322 -0.562 16.019 C0.076 18.182 0.725 20.341 1.375 22.5 C1.805 23.954 2.235 25.409 2.664 26.863 C5.623 36.868 5.623 36.868 7 41 C8.98 41 10.96 41 13 41 C12.67 41.99 12.34 42.98 12 44 C10.082 44.891 10.082 44.891 7.598 45.605 C6.708 45.867 5.817 46.128 4.9 46.396 C3.964 46.658 3.027 46.919 2.062 47.188 C1.13 47.46 0.197 47.733 -0.764 48.014 C-7.649 50 -7.649 50 -10 50 C-10 49.01 -10 48.02 -10 47 C-8.68 46.34 -7.36 45.68 -6 45 C-8.883 32.856 -12.333 20.929 -16 9 C-23.75 9.875 -23.75 9.875 -26 11 C-25.419 20.36 -24.035 29.521 -22.438 38.75 C-22.201 40.141 -21.964 41.531 -21.729 42.922 C-21.157 46.282 -20.581 49.641 -20 53 C-24.124 52.159 -26.003 50.42 -29.062 47.5 C-33.663 43.179 -38.427 39.149 -43.34 35.184 C-47.332 31.907 -51.173 28.468 -55 25 C-52.096 49.904 -52.096 49.904 -49 53 C-46.375 53.625 -46.375 53.625 -44 54 C-44 54.66 -44 55.32 -44 56 C-55.522 58.296 -55.522 58.296 -61 58 C-61 57.34 -61 56.68 -61 56 C-60.175 55.835 -60.175 55.835 -56 55 C-56.336 47.029 -57.539 39.282 -58.938 31.438 C-59.107 30.462 -59.277 29.486 -59.452 28.48 C-59.537 28.019 -59.537 28.019 -59.965 25.684 C-60.116 24.854 -60.266 24.024 -60.422 23.17 C-61 21 -61 21 -63 18 C-65.625 17.312 -65.625 17.312 -68 17 C-68 16.01 -68 15.02 -68 14 C-66.293 13.66 -64.584 13.328 -62.875 13 C-61.924 12.814 -60.972 12.629 -59.992 12.438 C-51.993 11.268 -51.993 11.268 -48.07 14.16 C-47.075 15.113 -46.093 16.082 -45.125 17.062 C-44.077 18.074 -43.029 19.084 -41.98 20.094 C-41.727 20.342 -41.727 20.342 -40.447 21.598 C-38.5 23.485 -36.48 25.28 -34.438 27.062 C-33.838 27.59 -33.239 28.117 -32.621 28.66 C-31 30 -31 30 -28 32 C-28.45 29.227 -28.909 26.457 -29.375 23.688 C-29.501 22.902 -29.628 22.116 -29.758 21.307 C-29.887 20.549 -30.016 19.792 -30.148 19.012 C-30.264 18.315 -30.379 17.619 -30.498 16.901 C-31 15 -31 15 -33 12 C-35.625 11.312 -35.625 11.312 -38 11 C-38 10.34 -38 9.68 -38 9 C-36.765 8.769 -35.53 8.539 -34.258 8.301 C-22.654 6.083 -11.331 3.339 0 0 Z " fill="#008DD6" transform="translate(622,896)"/>
<path d="M0 0 C3.282 1.846 4.576 3.193 6.312 6.5 C7 9 7 9 7 13 C14.175 12.539 21.034 11.798 28 10 C29.333 9.667 30.667 9.333 32 9 C30.584 14.149 28.886 19.224 25 23 C20.955 24.412 16.944 24.706 12.688 25 C11.565 25.107 10.443 25.214 9.287 25.324 C6.526 25.583 3.766 25.807 1 26 C4.879 30.001 9.363 32.78 15 33.25 C15.66 33.168 16.32 33.085 17 33 C17.165 32.67 17.165 32.67 18 31 C18.99 31 19.98 31 21 31 C19.52 36.001 17.368 40.329 14.875 44.875 C14.502 45.563 14.13 46.252 13.746 46.961 C12.835 48.643 11.918 50.322 11 52 C10.34 52 9.68 52 9 52 C9 50.02 9 48.04 9 46 C1.563 41.631 -5.937 37.415 -13.625 33.5 C-14.299 33.15 -14.973 32.8 -15.668 32.439 C-19.113 30.71 -21.064 30 -25 30 C-26.75 31.5 -26.75 31.5 -28 33 C-29 30 -29 30 -28.291 27.95 C-27.905 27.179 -27.519 26.408 -27.121 25.613 C-26.907 25.185 -26.907 25.185 -25.826 23.018 C-25.368 22.125 -24.91 21.232 -24.438 20.312 C-24.006 19.439 -23.575 18.566 -23.131 17.666 C-17.701 6.926 -13.221 -1.711 0 0 Z M-15.938 12.812 C-16.278 13.338 -16.278 13.338 -18 16 C-17 19 -17 19 -13.621 20.824 C-12.231 21.456 -10.837 22.077 -9.438 22.688 C-9.082 22.848 -9.082 22.848 -7.283 23.658 C-5.526 24.448 -3.764 25.225 -2 26 C0.106 22.143 0.554 19.43 0 15 C-3.018 11.982 -5.595 10.219 -9.812 9.562 C-13.263 10.036 -13.744 10.337 -15.938 12.812 Z " fill="#008CD6" transform="translate(882,690)"/>
<path d="M0 0 C2.446 2.446 2.238 3.206 2.375 6.562 C2.832 12.06 4.518 16.128 7 21 C7.373 21.803 7.745 22.606 8.129 23.434 C10.265 27.953 12.628 32.012 15.562 36.062 C18.774 40.518 20.979 44.914 23 50 C23.384 50.873 23.768 51.745 24.164 52.645 C24.543 53.525 24.922 54.405 25.312 55.312 C25.659 56.113 26.006 56.914 26.363 57.738 C27.086 60.304 26.957 61.537 26 64 C23.611 66.665 22.28 66.979 18.688 67.25 C13.03 65.332 10.946 62.094 8 57 C5.996 52.872 4.14 48.682 2.372 44.448 C-1.237 35.926 -6.006 28.88 -12.215 22.043 C-14.105 19.88 -15.793 17.622 -17.5 15.312 C-20.578 11.278 -23.723 8.706 -28 6 C-27.34 5.01 -26.68 4.02 -26 3 C-18.33 3.43 -11.341 4.742 -4 7 C-3.67 5.02 -3.34 3.04 -3 1 C-2.01 0.67 -1.02 0.34 0 0 Z " fill="#008CD6" transform="translate(250,196)"/>
<path d="M0 0 C3.606 3.019 7.353 6.402 7.926 11.281 C8.35 25.38 0.155 34.782 -8.312 45.25 C-9.312 46.25 -9.312 46.25 -12.473 46.348 C-13.76 46.336 -15.048 46.324 -16.375 46.312 C-17.665 46.303 -18.956 46.294 -20.285 46.285 C-21.284 46.274 -22.283 46.262 -23.312 46.25 C-21.87 42.098 -19.811 38.95 -17.188 35.438 C-16.463 34.462 -15.739 33.486 -14.992 32.48 C-14.438 31.744 -13.884 31.008 -13.312 30.25 C-13.904 30.091 -14.496 29.933 -15.105 29.77 C-21.104 27.998 -25.12 25.971 -28.422 20.367 C-29.955 16.722 -29.752 13.132 -29.312 9.25 C-27.285 4.294 -23.376 0.562 -18.461 -1.543 C-12.015 -3.456 -5.955 -3.146 0 0 Z M-15.125 8.312 C-16.983 11.344 -16.684 13.784 -16.312 17.25 C-15.188 19.25 -15.188 19.25 -13.312 20.25 C-10.25 20.125 -10.25 20.125 -7.312 19.25 C-5.312 16.25 -5.312 16.25 -5.562 12.688 C-6.312 9.25 -6.312 9.25 -8.312 7.25 C-11.087 6.894 -12.691 6.886 -15.125 8.312 Z " fill="#008CD6" transform="translate(502.3125,740.75)"/>
<path d="M0 0 C9.9 0 19.8 0 30 0 C30 3.3 30 6.6 30 10 C24.06 10 18.12 10 12 10 C12 12.64 12 15.28 12 18 C13.196 17.938 14.393 17.876 15.625 17.812 C21.322 17.843 24.597 19.78 28.875 23.5 C31.666 27.145 31.773 30.835 31.535 35.309 C30.642 39.803 28.737 42.392 25 45 C17.147 48.707 9.131 49.189 0.938 46.5 C-0.362 46.005 -1.661 45.51 -3 45 C-3 42.03 -3 39.06 -3 36 C-2.68 36.078 -2.68 36.078 -1.059 36.473 C4.247 37.667 8.625 38.426 14 37 C15.938 35.438 15.938 35.438 17 34 C16.188 31.562 16.188 31.562 15 29 C10.215 27.405 5.027 27.419 0 27 C0 18.09 0 9.18 0 0 Z " fill="#008CD6" transform="translate(518,739)"/>
<path d="M0 0 C1.974 0.957 3.743 1.997 5.547 3.242 C6.454 3.861 7.362 4.48 8.297 5.117 C13.689 10.21 15.698 15.087 15.922 22.367 C15.857 29.652 14.027 34.437 9.125 39.797 C3.224 45.158 -2.968 46.821 -10.738 46.598 C-16.88 45.793 -22.002 42.446 -26.453 38.242 C-31.765 31.012 -32.173 25.043 -31.453 16.242 C-29.564 8.892 -23.83 4.001 -17.594 0.07 C-12.293 -1.98 -5.375 -1.661 0 0 Z M-22.453 24.242 C-23.655 27.848 -23.78 30.452 -23.453 34.242 C-21.658 36.995 -20.401 38.768 -17.453 40.242 C-13.296 40.715 -10.56 40.295 -7.16 37.766 C0.028 31.351 6.596 24.368 8.109 14.617 C7.355 10.09 6.03 8.217 2.547 5.242 C-9.832 2.56 -17.071 14.851 -22.453 24.242 Z " fill="#008CD6" transform="translate(275.453125,832.7578125)"/>
<path d="M0 0 C8.594 0.512 16.832 1.788 25.25 3.562 C25.819 3.679 25.819 3.679 28.699 4.271 C31.468 4.841 34.234 5.418 37 6 C36.858 7.584 36.711 9.167 36.562 10.75 C36.481 11.632 36.4 12.513 36.316 13.422 C36.038 15.694 35.612 17.799 35 20 C34.01 19.67 33.02 19.34 32 19 C31.876 17.763 31.752 16.525 31.625 15.25 C31.203 13.078 31.203 13.078 30 11 C25.846 8.74 21.529 7.327 17 6 C16.867 6.976 16.734 7.952 16.598 8.957 C16.421 10.229 16.244 11.502 16.062 12.812 C15.975 13.445 15.975 13.445 15.535 16.645 C15 20 15 20 14 23 C20.523 20.785 20.523 20.785 22.938 16.812 C23.113 16.348 23.113 16.348 24 14 C24.66 14 25.32 14 26 14 C25.286 22.137 23.672 30.017 22 38 C21.505 37.835 21.505 37.835 19 37 C18.327 34.722 18.051 32.48 17.723 30.129 C17 28 17 28 13 26 C12.67 31.61 12.34 37.22 12 43 C23.205 44.494 23.205 44.494 27 42 C28.83 40.084 30.389 38.117 32 36 C32.99 36.33 33.98 36.66 35 37 C34.358 38.98 33.711 40.959 33.062 42.938 C32.703 44.04 32.343 45.142 31.973 46.277 C31 49 31 49 30 50 C21.67 49.872 13.447 48.068 5.312 46.438 C4.717 46.321 4.717 46.321 1.705 45.729 C-1.198 45.157 -4.099 44.581 -7 44 C-7.165 43.505 -7.165 43.505 -8 41 C-7.01 40.835 -7.01 40.835 -2 40 C-1.161 35.856 -0.325 31.712 0.509 27.567 C0.792 26.16 1.076 24.753 1.361 23.345 C1.773 21.313 2.181 19.279 2.59 17.246 C2.836 16.026 3.082 14.806 3.336 13.549 C3.992 10.042 4.522 6.535 5 3 C3.35 2.67 1.7 2.34 0 2 C0 1.34 0 0.68 0 0 Z " fill="#008DD6" transform="translate(414,901)"/>
<path d="M0 0 C2.837 0.352 3.91 0.909 5.957 2.969 C6.569 3.804 7.182 4.639 7.812 5.5 C8.438 6.315 9.063 7.129 9.707 7.969 C12.899 15.452 8.969 24.592 6.938 32.062 C6.797 32.591 6.797 32.591 6.084 35.264 C5.395 37.844 4.698 40.422 4 43 C8.95 39.37 13.9 35.74 19 32 C18.835 30.845 18.835 30.845 18 25 C21.051 25.317 21.907 25.889 23.922 28.285 C24.525 29.202 25.128 30.118 25.75 31.062 C26.364 31.982 26.977 32.901 27.609 33.848 C27.839 34.203 27.839 34.203 29 36 C28.34 36.66 27.68 37.32 27 38 C26.337 37.563 25.675 37.126 24.992 36.676 C22 36 22 36 20.235 36.783 C18.127 38.17 16.126 39.649 14.125 41.188 C13.386 41.732 12.648 42.276 11.886 42.837 C9.578 44.542 7.289 46.27 5 48 C2.853 49.6 0.703 51.194 -1.452 52.782 C-2.757 53.747 -4.058 54.718 -5.353 55.696 C-9.78 59 -9.78 59 -12 59 C-11.41 53.42 -10.403 48.216 -8.898 42.816 C-8.698 42.075 -8.497 41.334 -8.29 40.571 C-7.44 37.433 -6.577 34.298 -5.715 31.162 C-5.084 28.861 -4.46 26.557 -3.836 24.254 C-3.637 23.54 -3.438 22.827 -3.233 22.092 C-2.777 20.406 -2.382 18.704 -2 17 C-2.33 16.67 -2.66 16.34 -3 16 C-5.941 18.1 -8.877 20.205 -11.812 22.312 C-12.646 22.907 -13.479 23.502 -14.338 24.115 C-15.14 24.692 -15.943 25.269 -16.77 25.863 C-17.508 26.392 -18.246 26.921 -19.007 27.466 C-22.596 30.228 -22.596 30.228 -24 32 C-23.688 35.688 -23.688 35.688 -23 39 C-26.837 37.506 -28.462 35.364 -30.75 32 C-31.364 31.113 -31.977 30.226 -32.609 29.312 C-34 27 -34 27 -34 25 C-30 26 -30 26 -28.112 26.694 C-26 27 -26 27 -24.021 26.015 C-23.679 25.76 -23.679 25.76 -21.953 24.465 C-21.572 24.184 -21.572 24.184 -19.641 22.76 C-18.852 22.158 -18.063 21.557 -17.25 20.938 C-16.477 20.363 -15.703 19.789 -14.906 19.197 C-13.358 18.045 -11.816 16.886 -10.279 15.719 C-8.757 14.571 -7.222 13.438 -5.676 12.322 C-5.315 12.06 -5.315 12.06 -3.488 10.734 C-2.842 10.271 -2.195 9.808 -1.529 9.331 C0 8 0 8 1.062 5.312 C1 3 1 3 0 0 Z " fill="#008DD7" transform="translate(174,728)"/>
<path d="M0 0 C1.648 1.408 3.295 2.816 4.938 4.23 C6.285 5.387 7.639 6.535 9 7.676 C22.034 18.749 22.034 18.749 23.188 25.625 C23.365 30.096 21.968 32.62 19 36 C14.95 38.7 11.758 38.663 7 38 C3.492 36.6 0.681 34.681 -2 32 C-4.824 32.17 -5.914 32.92 -7.992 34.855 C-9.871 37.183 -11.571 39.369 -13 42 C-12.438 45.562 -12.438 45.562 -11 48 C-15.281 48 -17.083 45.444 -20 42.625 C-25.701 37.199 -25.701 37.199 -29 35 C-29 34.01 -29 33.02 -29 32 C-27.989 32.308 -26.979 32.616 -25.938 32.934 C-22 33 -22 33 -20.223 31.805 C-18.37 29.968 -16.678 28.061 -15 26.062 C-14.391 25.37 -13.781 24.678 -13.153 23.965 C-11.954 22.6 -10.764 21.227 -9.584 19.845 C-7.691 17.64 -5.718 15.513 -3.75 13.375 C-1.503 10.747 0.324 8.475 1 5 C0.125 2.688 0.125 2.688 -1 1 C-0.67 0.67 -0.34 0.34 0 0 Z M8.16 16.574 C1.214 23.572 1.214 23.572 -1 28 C1.188 29.625 1.188 29.625 4 31 C7.723 30.349 9.125 28.875 11.812 26.188 C14 23 14 23 14.438 20.312 C14 18 14 18 12 15 C10 15 10 15 8.16 16.574 Z " fill="#008DD6" transform="translate(231,796)"/>
<path d="M0 0 C2.31 0.825 2.31 0.825 14 5 C14 5.66 14 6.32 14 7 C13.336 7.098 12.672 7.196 11.988 7.297 C2.532 8.898 2.532 8.898 -1 13 C-2 16.062 -2 16.062 -2 19 C-0.562 20.875 -0.562 20.875 1 22 C5.838 20.687 8.853 18.773 12.625 15.5 C18.118 10.761 21.457 8.488 28.75 8.691 C32.383 9.19 34.338 10.528 37 13 C39.895 17.762 40.412 21.476 39.586 26.852 C38.445 31.035 36.011 33.989 33 37 C32.875 40.625 32.875 40.625 33 44 C27.143 42.338 21.541 40.53 16 38 C16 37.34 16 36.68 16 36 C16.88 35.914 17.761 35.827 18.668 35.738 C28.115 34.595 28.115 34.595 32.25 31.812 C34.353 28.432 34.925 25.969 35 22 C33 20 33 20 30.324 19.535 C25.69 20.183 23.288 22.444 19.812 25.438 C18.593 26.461 17.37 27.48 16.145 28.496 C15.612 28.952 15.079 29.407 14.531 29.877 C10.612 32.753 5.631 32.703 1 32 C-2.329 30.307 -4.427 27.897 -6.438 24.75 C-7.571 19.209 -6.916 14.566 -4.062 9.688 C-3.382 8.801 -2.701 7.914 -2 7 C-0.415 4.226 0 3.263 0 0 Z " fill="#008CD6" transform="translate(885,651)"/>
<path d="M0 0 C0.66 0 1.32 0 2 0 C2.366 0.677 2.732 1.354 3.109 2.051 C8.09 9.82 18.461 18.233 27.523 20.355 C31.012 20.909 34.466 21.073 38 21 C38.99 19.02 39.98 17.04 41 15 C41.66 15 42.32 15 43 15 C42.694 18.792 42.379 22.584 42.062 26.375 C41.975 27.455 41.888 28.535 41.799 29.648 C41.712 30.68 41.625 31.711 41.535 32.773 C41.457 33.727 41.378 34.68 41.297 35.662 C41 38 41 38 40 40 C39.34 40 38.68 40 38 40 C38 38.02 38 36.04 38 34 C37.01 33.835 36.02 33.67 35 33.5 C34.443 33.407 33.886 33.314 33.312 33.219 C24.61 32.395 19.142 34.159 11.188 37.75 C10.152 38.193 9.116 38.637 8.049 39.094 C3.175 41.247 0.123 42.616 -3 47 C-3.66 47 -4.32 47 -5 47 C-4.859 44.271 -4.712 41.542 -4.562 38.812 C-4.543 38.428 -4.543 38.428 -4.443 36.482 C-4.225 32.567 -3.913 28.829 -3 25 C-2.34 25 -1.68 25 -1 25 C-1 26.32 -1 27.64 -1 29 C1.794 28.049 4.585 27.089 7.375 26.125 C8.169 25.856 8.963 25.586 9.781 25.309 C10.542 25.044 11.302 24.78 12.086 24.508 C12.437 24.387 12.437 24.387 14.212 23.778 C16 23 16 23 18 21 C15.902 19.324 13.798 17.659 11.688 16 C11.093 15.523 10.498 15.046 9.885 14.555 C5.34 11 5.34 11 2 11 C1.67 11.495 1.67 11.495 0 14 C-0.66 14 -1.32 14 -2 14 C-1.86 11.854 -1.713 9.708 -1.562 7.562 C-1.481 6.368 -1.4 5.173 -1.316 3.941 C-1 1 -1 1 0 0 Z " fill="#008CD6" transform="translate(910,535)"/>
<path d="M0 0 C0.495 0.165 0.495 0.165 3 1 C4.168 3.398 4.168 3.398 5.188 6.375 C5.532 7.352 5.876 8.329 6.23 9.336 C7 12 7 12 7 15 C4.459 13.827 2.486 12.603 0.25 10.875 C-4.054 8.392 -6.081 8.453 -11 9 C-14.468 10.387 -15.723 11.59 -17.812 14.688 C-20.388 21.873 -18.973 27.458 -16.281 34.371 C-14.182 38.678 -11.369 42.816 -7 45 C-1.751 45.404 1.656 45.05 6 42 C7.716 39.69 9.235 37.338 10.703 34.863 C11.131 34.248 11.559 33.634 12 33 C12.66 33 13.32 33 14 33 C14.987 35.586 15.158 36.637 14.031 39.219 C10.186 44.948 6.945 48.424 0.211 50.57 C-6.527 51.88 -14.504 52.489 -20.562 48.875 C-25.753 44.929 -29.619 40.527 -31 34 C-31.826 26.677 -30.789 20.379 -27 14 C-21.008 6.655 -13.468 4.517 -4.375 3.312 C-3.261 3.209 -2.148 3.106 -1 3 C-0.67 2.01 -0.34 1.02 0 0 Z " fill="#008CD6" transform="translate(664,881)"/>
<path d="M0 0 C-1.604 5.328 -5.077 9.173 -8.5 13.438 C-9.768 15.044 -11.033 16.652 -12.297 18.262 C-12.923 19.059 -13.549 19.856 -14.193 20.677 C-16.772 23.993 -19.285 27.349 -21.75 30.75 C-22.155 31.297 -22.561 31.844 -22.979 32.408 C-25.409 35.796 -26.872 38.992 -28 43 C-30.157 40.986 -31.658 39.098 -33.043 36.496 C-33.394 35.838 -33.746 35.18 -34.107 34.502 C-34.464 33.821 -34.82 33.139 -35.188 32.438 C-35.556 31.752 -35.924 31.067 -36.303 30.361 C-39 25.262 -39 25.262 -39 23 C-37.02 23.66 -35.04 24.32 -33 25 C-30.875 22.875 -30.875 22.875 -29 20 C-29.84 15.172 -32.505 11.159 -35 7 C-37.31 7.33 -39.62 7.66 -42 8 C-43 11 -43 11 -42 14 C-42.99 14.33 -43.98 14.66 -45 15 C-46.008 13.234 -47.006 11.462 -48 9.688 C-48.557 8.701 -49.114 7.715 -49.688 6.699 C-51 4 -51 4 -51 1 C-50.479 1.161 -49.958 1.322 -49.422 1.488 C-38.595 3.776 -26.225 1.725 -15.339 0.712 C-10.198 0.237 -5.163 -0.116 0 0 Z M-31 6 C-29.35 9.3 -27.7 12.6 -26 16 C-22.364 12.566 -19.639 9.203 -17 5 C-21.785 4.902 -26.277 5.229 -31 6 Z " fill="#008CD6" transform="translate(166,707)"/>
<path d="M0 0 C1.863 0.253 3.717 0.577 5.562 0.938 C6.574 1.132 7.586 1.327 8.629 1.527 C9.02 1.605 9.02 1.605 11 2 C11.33 2.99 11.66 3.98 12 5 C11.687 5.073 11.687 5.073 10.102 5.445 C9.284 5.67 8.467 5.894 7.625 6.125 C7.219 6.229 7.219 6.229 5.164 6.758 C3 8 3 8 1.711 11.117 C1.476 12.069 1.242 13.02 1 14 C8.833 16.004 16.674 17.975 24.562 19.75 C25.636 19.992 26.71 20.235 27.816 20.484 C31.26 21.042 34.518 21.088 38 21 C38.33 19.68 38.66 18.36 39 17 C39.99 17 40.98 17 42 17 C41.358 20.438 40.71 23.875 40.062 27.312 C39.88 28.289 39.698 29.265 39.51 30.271 C39.421 30.74 39.421 30.74 38.973 33.113 C38.81 33.977 38.648 34.841 38.481 35.732 C38 38 38 38 37 41 C36.34 41 35.68 41 35 41 C34.835 40.01 34.835 40.01 34 35 C29.819 34.02 25.638 33.042 21.457 32.064 C20.036 31.732 18.615 31.399 17.195 31.066 C15.147 30.586 13.099 30.108 11.051 29.629 C9.82 29.341 8.589 29.053 7.322 28.756 C6.225 28.507 5.129 28.257 4 28 C3.05 27.781 2.1 27.562 1.122 27.336 C0.772 27.28 0.772 27.28 -1 27 C-2 28 -2 28 -2.375 30.75 C-1.883 35.016 -0.119 36.185 3 39 C3.33 39.99 3.66 40.98 4 42 C0.04 41.34 -3.92 40.68 -8 40 C-7.404 31.25 -5.888 22.933 -4 14.375 C-3.727 13.098 -3.453 11.82 -3.172 10.504 C-1.137 1.137 -1.137 1.137 0 0 Z " fill="#008CD6" transform="translate(904,582)"/>
<path d="M0 0 C14.781 7.298 14.781 7.298 21 11 C21 11.99 21 12.98 21 14 C18.69 13.67 16.38 13.34 14 13 C11.896 16.609 9.797 20.22 7.701 23.834 C6.989 25.061 6.275 26.288 5.56 27.514 C4.529 29.283 3.502 31.053 2.477 32.824 C1.859 33.887 1.241 34.95 0.604 36.046 C-0.814 38.657 -1.97 41.217 -3 44 C4.692 50 4.692 50 10 50 C13.66 48.565 16.432 46.996 19 44 C19.99 44.33 20.98 44.66 22 45 C19.389 49.835 16.625 53.871 13 58 C8.589 56.668 4.821 54.928 0.832 52.629 C-0.308 51.972 -1.448 51.315 -2.623 50.639 C-3.208 50.298 -3.793 49.957 -4.396 49.605 C-6.189 48.562 -7.987 47.529 -9.787 46.498 C-19.386 40.939 -19.386 40.939 -22 38 C-19 37 -19 37 -16 38 C-11.584 31.555 -7.518 24.96 -3.625 18.188 C-3.08 17.26 -2.534 16.333 -1.973 15.377 C-1.458 14.483 -0.944 13.589 -0.414 12.668 C-0.182 12.267 -0.182 12.267 0.994 10.239 C2 8 2 8 2 4 C1.34 3.67 0.68 3.34 0 3 C0 2.01 0 1.02 0 0 Z " fill="#008CD6" transform="translate(300,851)"/>
<path d="M0 0 C0.165 1.155 0.165 1.155 1 7 C4.531 6.576 7.751 6.085 11.125 4.938 C13.951 4.016 16.055 3.827 19 4 C18.875 6.25 18.875 6.25 18 9 C12.919 13 12.919 13 10 13 C12.007 16.011 12.839 16.63 16 18 C15.835 18.495 15.835 18.495 15 21 C14.564 20.994 14.564 20.994 12.359 20.965 C-8.612 20.806 -8.612 20.806 -13 23 C-16.411 23.297 -18.38 23.359 -21.375 21.625 C-21.911 21.089 -22.447 20.553 -23 20 C-23 19.34 -23 18.68 -23 18 C-22.362 17.746 -21.724 17.492 -21.066 17.23 C-20.24 16.886 -19.414 16.542 -18.562 16.188 C-17.739 15.851 -16.915 15.515 -16.066 15.168 C-14 14 -14 14 -13 11 C-13.869 11.035 -14.738 11.07 -15.633 11.105 C-27.79 11.391 -27.79 11.391 -32 8 C-32.875 5.312 -32.875 5.312 -33 3 C-29.051 2 -25.845 2.096 -21.812 2.562 C-13.876 3.275 -7.389 0 0 0 Z " fill="#008CD6" transform="translate(905,300)"/>
<path d="M0 0 C4.29 0 8.58 0 13 0 C13 15.51 13 31.02 13 47 C8.71 47 4.42 47 0 47 C0 31.49 0 15.98 0 0 Z " fill="#008CD5" transform="translate(568,739)"/>
<path d="M0 0 C4.29 0 8.58 0 13 0 C13 15.51 13 31.02 13 47 C8.71 47 4.42 47 0 47 C0 31.49 0 15.98 0 0 Z " fill="#008BD5" transform="translate(443,739)"/>
<path d="M0 0 C0.66 0 1.32 0 2 0 C2 2.31 2 4.62 2 7 C2.621 7.127 2.621 7.127 5.766 7.77 C12.588 9.283 19.191 11.518 25.824 13.697 C26.315 13.852 26.315 13.852 28.797 14.637 C29.677 14.922 30.557 15.208 31.464 15.503 C34.298 16.058 36.232 15.745 39 15 C39.33 14.01 39.66 13.02 40 12 C40.99 12.33 41.98 12.66 43 13 C42.083 16.485 41.138 19.962 40.188 23.438 C39.926 24.431 39.665 25.424 39.396 26.447 C39.135 27.392 38.874 28.336 38.605 29.309 C38.37 30.183 38.134 31.058 37.891 31.959 C37.597 32.632 37.303 33.306 37 34 C36.01 34.33 35.02 34.66 34 35 C34 33.35 34 31.7 34 30 C26.653 26.889 19.22 24.416 11.562 22.188 C10.488 21.863 9.414 21.539 8.307 21.205 C7.279 20.904 6.251 20.603 5.191 20.293 C4.265 20.02 3.339 19.747 2.385 19.466 C0 19 0 19 -3 20 C-3.33 20.99 -3.66 21.98 -4 23 C-4.99 23 -5.98 23 -7 23 C-1.884 1.884 -1.884 1.884 0 0 Z " fill="#008DD6" transform="translate(894,624)"/>
<path d="M0 0 C1.593 1.593 1.17 3.234 1.188 5.438 C1.023 15.954 -1.063 24.049 -8.668 31.672 C-13.076 35.263 -16.415 35.49 -22 35 C-22.66 33.68 -23.32 32.36 -24 31 C-23.237 30.484 -22.474 29.969 -21.688 29.438 C-15.94 24.224 -15.264 16.921 -14.184 9.609 C-13.335 4.457 -13.335 4.457 -11.594 2.078 C-7.902 -0.419 -4.303 -0.159 0 0 Z " fill="#008CD6" transform="translate(116,305)"/>
<path d="M0 0 C13.088 1.807 13.088 1.807 16.371 5.84 C19.011 10.616 20.073 15.735 20.02 21.18 C19.69 22.17 19.36 23.16 19.02 24.18 C17.7 23.85 16.38 23.52 15.02 23.18 C14.937 22.561 14.855 21.942 14.77 21.305 C14.02 19.18 14.02 19.18 12.207 18.117 C11.485 17.808 10.763 17.498 10.02 17.18 C7.77 15.68 7.77 15.68 6.02 14.18 C6.02 13.52 6.02 12.86 6.02 12.18 C5.483 11.912 4.947 11.643 4.395 11.367 C3.611 10.975 2.827 10.583 2.02 10.18 C0.968 9.726 -0.084 9.272 -1.168 8.805 C-3.98 7.18 -3.98 7.18 -5.043 5.18 C-4.98 3.18 -4.98 3.18 -3.738 1.547 C-1.98 0.18 -1.98 0.18 0 0 Z " fill="#008DD6" transform="translate(205.98046875,166.8203125)"/>
<path d="M0 0 C1.025 0.171 2.05 0.343 3.105 0.52 C5.812 1.188 5.812 1.188 8.812 3.188 C9.305 7.55 9.532 9.958 7.312 13.75 C4.402 15.423 2.462 15.527 -0.828 14.945 C-4.76 13.682 -8.219 11.646 -11.77 9.562 C-14.188 8.188 -14.188 8.188 -17.188 7.188 C-16.827 4.572 -16.39 3.39 -14.5 1.5 C-9.776 -1.181 -5.215 -0.919 0 0 Z " fill="#008CD6" transform="translate(141.1875,264.8125)"/>
<path d="M0 0 C-0.617 3.35 -1.832 5.479 -3.875 8.188 C-4.132 8.535 -4.132 8.535 -5.43 10.293 C-7 12 -7 12 -10 13 C-12 12 -12 12 -13 9 C-15.285 8.051 -15.285 8.051 -18.062 7.312 C-18.982 7.061 -19.901 6.81 -20.848 6.551 C-21.558 6.369 -22.268 6.187 -23 6 C-23.33 4.35 -23.66 2.7 -24 1 C-18.122 -4.634 -6.539 -4.359 0 0 Z " fill="#008CD6" transform="translate(329,193)"/>
<path d="M0 0 C0.864 4.468 0.883 8.692 -1.688 12.5 C-4.132 14.086 -6.169 15.274 -9 16 C-12 14 -12 14 -12.875 11 C-14 8 -14 8 -16.625 6.625 C-17.409 6.419 -18.192 6.212 -19 6 C-18.375 3.125 -18.375 3.125 -17 0 C-11.679 -2.787 -5.057 -3.371 0 0 Z " fill="#008DD6" transform="translate(150,367)"/>
<path d="M0 0 C1.32 0 2.64 0 4 0 C6.397 7.19 4.648 13.191 2 20 C-1.675 21.026 -3.338 21.361 -6.75 19.5 C-9.469 16.479 -10.167 13.938 -11 10 C-7.479 6.102 -7.479 6.102 -4.938 5.562 C-3 5 -3 5 -1.5 2.438 C-1.005 1.633 -0.51 0.829 0 0 Z " fill="#008CD6" transform="translate(456,97)"/>
</svg>
